<svg id="Шар_1" data-name="Шар 1" xmlns="http://www.w3.org/2000/svg" viewBox="0 0 349.5 281.57"><defs><style>.cls-1{font-size:36px;}.cls-1,.cls-3,.cls-4,.cls-7{fill:#fff;}.cls-1,.cls-3,.cls-4{font-family:Myriad Pro;}.cls-2,.cls-3{font-weight:700;}.cls-3,.cls-4{font-size:21px;}.cls-5,.cls-6{font-size:14px;}.cls-6{letter-spacing:-1px;}</style></defs><title>earlymusiccon</title><text class="cls-1" transform="translate(0.01 30.13)"><tspan class="cls-2">Ea<tspan x="38.23" y="0">r</tspan><tspan x="51.8" y="0">ly Music </tspan><tspan x="188.24" y="0">C</tspan><tspan x="208.98" y="0">on</tspan><tspan x="250.84" y="0">c</tspan><tspan x="266.68" y="0">e</tspan><tspan x="285.69" y="0">r</tspan><tspan x="300.13" y="0">t</tspan></tspan><tspan x="0" y="43.2">F</tspan><tspan x="16.6" y="43.2">r</tspan><tspan x="28.51" y="43.2">i, Jul 22n</tspan><tspan x="158.22" y="43.2">d</tspan><tspan x="178.16" y="43.2">, 7 pm</tspan></text><text class="cls-3" transform="translate(269.87 73.33) scale(1.01 1)"> </text><text class="cls-4" transform="translate(0.01 98.53)"><tspan class="cls-2"> </tspan><tspan class="cls-2" x="4.24" y="0">A</tspan><tspan class="cls-2" x="17.89" y="0">ll </tspan><tspan class="cls-2" x="33.68" y="0">S</tspan><tspan class="cls-2" x="45.19" y="0">ai</tspan><tspan class="cls-2" x="62.03" y="0">n</tspan><tspan class="cls-2" x="74.21" y="0">ts </tspan><tspan class="cls-2" x="95.28" y="0">C</tspan><tspan class="cls-2" x="107.71" y="0">hu</tspan><tspan class="cls-2" x="132.26" y="0">r</tspan><tspan class="cls-2" x="140.07" y="0">ch.</tspan><tspan class="cls-5" x="0" y="16.8">A</tspan><tspan class="cls-5" x="8.53" y="16.8">n </tspan><tspan class="cls-5" x="19.26" y="16.8">e</tspan><tspan class="cls-5" x="26.24" y="16.8">x</tspan><tspan class="cls-5" x="32.51" y="16.8">citing p</tspan><tspan class="cls-5" x="76.5" y="16.8">r</tspan><tspan class="cls-5" x="80.93" y="16.8">o</tspan><tspan class="cls-5" x="88.62" y="16.8">g</tspan><tspan class="cls-5" x="96.36" y="16.8">r</tspan><tspan class="cls-5" x="100.87" y="16.8">am of Ba</tspan><tspan class="cls-5" x="151.34" y="16.8">r</tspan><tspan class="cls-5" x="155.78" y="16.8">oque and Ea</tspan><tspan class="cls-5" x="228.06" y="16.8">r</tspan><tspan class="cls-5" x="232.69" y="16.8">ly Classical </tspan><tspan class="cls-5" x="297.38" y="16.8">v</tspan><tspan class="cls-5" x="303.98" y="16.8">ocal </tspan><tspan class="cls-5" x="0" y="33.6">solo and cho</tspan><tspan class="cls-5" x="74.29" y="33.6">r</tspan><tspan class="cls-5" x="78.8" y="33.6">al music </tspan><tspan class="cls-5" x="129.27" y="33.6">b</tspan><tspan class="cls-5" x="137.14" y="33.6">y </tspan><tspan class="cls-5" x="146.7" y="33.6">M</tspan><tspan class="cls-5" x="158.04" y="33.6">o</tspan><tspan class="cls-5" x="165.63" y="33.6">za</tspan><tspan class="cls-5" x="178.37" y="33.6">r</tspan><tspan class="cls-5" x="183.28" y="33.6">t</tspan><tspan class="cls-5" x="187.88" y="33.6">, Bach, Hande</tspan><tspan class="cls-5" x="266.54" y="33.6">l</tspan><tspan class="cls-5" x="269.7" y="33.6">... </tspan><tspan class="cls-5" x="0" y="50.4">O</tspan><tspan class="cls-5" x="9.69" y="50.4">ur star </tspan><tspan class="cls-5" x="49.42" y="50.4">v</tspan><tspan class="cls-5" x="56.01" y="50.4">ocalists a</tspan><tspan class="cls-5" x="108.74" y="50.4">r</tspan><tspan class="cls-5" x="113.17" y="50.4">e sop</tspan><tspan class="cls-5" x="144.35" y="50.4">r</tspan><tspan class="cls-5" x="148.86" y="50.4">ano</tspan><tspan class="cls-5" x="171.06" y="50.4"> </tspan><tspan class="cls-5" x="173.46" y="50.4">T</tspan><tspan class="cls-5" x="179.78" y="50.4">r</tspan><tspan class="cls-5" x="184.29" y="50.4">a</tspan><tspan class="cls-5" x="191.04" y="50.4">c</tspan><tspan class="cls-5" x="197.56" y="50.4">y </tspan><tspan class="cls-5" x="207.13" y="50.4">F</tspan><tspan class="cls-5" x="213.51" y="50.4">ehr and </tspan><tspan class="cls-5" x="261.22" y="50.4">t</tspan><tspan class="cls-5" x="265.77" y="50.4">enor </tspan><tspan class="cls-5" x="295.79" y="50.4">P</tspan><tspan class="cls-5" x="302.87" y="50.4">aul </tspan><tspan class="cls-5" x="0" y="67.2">M</tspan><tspan class="cls-5" x="11.34" y="67.2">oo</tspan><tspan class="cls-5" x="26.71" y="67.2">r</tspan><tspan class="cls-5" x="31.15" y="67.2">e</tspan><tspan class="cls-5" x="38" y="67.2">, with a pe</tspan><tspan class="cls-5" x="97.51" y="67.2">r</tspan><tspan class="cls-5" x="102.14" y="67.2">iod instrume</tspan><tspan class="cls-5" x="176.17" y="67.2">n</tspan><tspan class="cls-5" x="183.88" y="67.2">ts ensembl</tspan><tspan class="cls-5" x="247.32" y="67.2">e</tspan><tspan class="cls-5" x="254.16" y="67.2">, O</tspan><tspan class="cls-5" x="269.67" y="67.2">K</tspan><tspan class="cls-5" x="277.02" y="67.2">O </tspan><tspan class="cls-5" x="0" y="84">BA</tspan><tspan class="cls-5" x="16.16" y="84">R</tspan><tspan class="cls-5" x="23.73" y="84">OQU</tspan><tspan class="cls-5" x="52.08" y="84">O</tspan><tspan class="cls-5" x="61.25" y="84">, and INSPI</tspan><tspan class="cls-5" x="122.75" y="84">R</tspan><tspan class="cls-6" x="130.35" y="84">A</tspan><tspan class="cls-5" x="137.84" y="84">TI Cho</tspan><tspan class="cls-5" x="174.69" y="84">r</tspan><tspan class="cls-5" x="179.2" y="84">al</tspan><tspan class="cls-5" x="189.25" y="84">e</tspan><tspan class="cls-5" x="196.09" y="84">.</tspan><tspan class="cls-5" x="0" y="117.6">T</tspan><tspan class="cls-5" x="6.79" y="117.6">ickets </tspan><tspan class="cls-5" x="43.06" y="117.6">a</tspan><tspan class="cls-5" x="49.76" y="117.6">t ticketselle</tspan><tspan class="cls-5" x="115.93" y="117.6">r</tspan><tspan class="cls-5" x="119.77" y="117.6">.ca </tspan><tspan class="cls-5" x="0" y="134.4">A</tspan><tspan class="cls-5" x="8.4" y="134.4">dults $28, </tspan><tspan class="cls-5" x="67.87" y="134.4">S</tspan><tspan class="cls-5" x="74.86" y="134.4">eniors/</tspan><tspan class="cls-5" x="115.52" y="134.4">S</tspan><tspan class="cls-5" x="122.38" y="134.4">tude</tspan><tspan class="cls-5" x="149.64" y="134.4">n</tspan><tspan class="cls-5" x="157.36" y="134.4">ts $25</tspan></text><line class="cls-7" x1="1.36" y1="39.13" x2="316.5" y2="39.13"/><path class="cls-7" d="M740.81,515.83c0.47,0,.3-0.38.37-0.46C740.4,515.47,740.83,515.94,740.81,515.83Z" transform="translate(-424.68 -479.13)"/><polygon class="cls-7" points="308.45 37.65 308.59 37.48 307.46 37.9 308.45 37.65"/><path class="cls-7" d="M726,516.78c0.68,0.71,2.6-.12,3.88.14l0.21,0.16,0.58-.57A27.65,27.65,0,0,1,726,516.78Z" transform="translate(-424.68 -479.13)"/><path class="cls-7" d="M722.12,515.23c0.24,0.28-.83.24,0.89,0.09l-0.16-.07C722.7,515.25,722.48,515.25,722.12,515.23Z" transform="translate(-424.68 -479.13)"/><path class="cls-7" d="M722.85,515.25c0.76,0-.49-0.23,0,0h0Z" transform="translate(-424.68 -479.13)"/><path class="cls-7" d="M719.36,515.41l1-.25c-0.21-.16-1.09-0.2-0.77-0.32C718.57,515,718.78,515.14,719.36,515.41Z" transform="translate(-424.68 -479.13)"/><path class="cls-7" d="M718.41,515.93l0.52-.11C718.84,515.75,718.7,515.73,718.41,515.93Z" transform="translate(-424.68 -479.13)"/><path class="cls-7" d="M720,515.6l-1.09.22c0.14,0.12.16,0.35,0.5-.08C719.34,516,719.56,515.75,720,515.6Z" transform="translate(-424.68 -479.13)"/><path class="cls-7" d="M720.65,515.71c0.56,0.16,1.28.25,0.28,0.5C722.83,516.11,722.55,515.61,720.65,515.71Z" transform="translate(-424.68 -479.13)"/><path class="cls-7" d="M725.58,517.51l0.75,0.21,0.65-.24C726.65,517.6,725.54,517.29,725.58,517.51Z" transform="translate(-424.68 -479.13)"/><path class="cls-7" d="M713.15,515a2,2,0,0,0,.41.6l0.74-.17A2.17,2.17,0,0,1,713.15,515Z" transform="translate(-424.68 -479.13)"/><path class="cls-7" d="M713.56,515.64l-1.1.26C713.44,515.93,713.62,515.8,713.56,515.64Z" transform="translate(-424.68 -479.13)"/><polygon class="cls-7" points="293.56 37.59 295.37 37.04 293.21 37.59 293.56 37.59"/><polygon class="cls-7" points="284.27 35.88 284.89 35.53 283.78 36.06 284.27 35.88"/><path class="cls-7" d="M706.16,515.08c0.46-.29-0.63-0.49-0.14-0.67a6.67,6.67,0,0,0-2,.53A4.42,4.42,0,0,1,706.16,515.08Z" transform="translate(-424.68 -479.13)"/><path class="cls-7" d="M703,515.26a7.5,7.5,0,0,0,1-.33A3.86,3.86,0,0,0,703,515.26Z" transform="translate(-424.68 -479.13)"/><path class="cls-7" d="M710.59,515.82a1.23,1.23,0,0,0-.87-0.43l0.43,0.43h0.43Z" transform="translate(-424.68 -479.13)"/><path class="cls-7" d="M710.17,515.83h0l-0.94,0Z" transform="translate(-424.68 -479.13)"/><path class="cls-7" d="M710.69,515.82h-0.11S710.65,515.88,710.69,515.82Z" transform="translate(-424.68 -479.13)"/><path class="cls-7" d="M715.35,516.33c-0.65.24-2,.5-0.69,0.86C715.12,516.9,714.38,516.69,715.35,516.33Z" transform="translate(-424.68 -479.13)"/><path class="cls-7" d="M711.23,516.36l1.17,0.1c0-.11-0.23-0.28.09-0.4Z" transform="translate(-424.68 -479.13)"/><polygon class="cls-7" points="285.98 37.36 286.55 37.23 286.12 37.19 285.98 37.36"/><path class="cls-7" d="M705.05,515.66a5.64,5.64,0,0,1-1.68.23,16.23,16.23,0,0,0,2,.13C705.48,515.89,705.77,515.65,705.05,515.66Z" transform="translate(-424.68 -479.13)"/><path class="cls-7" d="M707.54,515.78l-0.11,0C707.49,515.84,707.55,515.85,707.54,515.78Z" transform="translate(-424.68 -479.13)"/><path class="cls-7" d="M697.22,515.89l0.1,0.08,0-.07h-0.12Z" transform="translate(-424.68 -479.13)"/><path class="cls-7" d="M705.5,516.1a1.69,1.69,0,0,0,1.09-.15,11.35,11.35,0,0,1-1.2.07C705.35,516.08,705.34,516.12,705.5,516.1Z" transform="translate(-424.68 -479.13)"/><path class="cls-7" d="M701.33,515.46a8.51,8.51,0,0,0,.87.23A1.38,1.38,0,0,0,701.33,515.46Z" transform="translate(-424.68 -479.13)"/><path class="cls-7" d="M707.26,515.69l0.08,0C707.17,515.58,707.19,515.62,707.26,515.69Z" transform="translate(-424.68 -479.13)"/><path class="cls-7" d="M707.26,515.69a3.43,3.43,0,0,0-.67.26,6.13,6.13,0,0,0,.84-0.14A0.73,0.73,0,0,1,707.26,515.69Z" transform="translate(-424.68 -479.13)"/><path class="cls-7" d="M695.36,518.63c0.09-.4,1.41-0.76,2.55-0.34,1.12-.3.39-1.6-0.59-2.33,0,0.17,0,.33-1.19.57,0.4,0.22,2.56.51,1.59,0.86-1.53.2-1.25-.14-2-0.35,0.63,0.49-1.95.72-1.61,1.44l1.34-.26C695.48,518.35,695,518.53,695.36,518.63Z" transform="translate(-424.68 -479.13)"/><path class="cls-7" d="M699.52,516l0.48,0a5.65,5.65,0,0,1-1.64-.54,1.34,1.34,0,0,0-1,.47l2.34,0.06Z" transform="translate(-424.68 -479.13)"/><path class="cls-7" d="M702.14,516c-0.37.43-1.51,0.61-.81,1.08,1.4,0,1-.36,1.81-0.55-2.25.11,0.65-.24-1-0.48a10.23,10.23,0,0,1,1.22-.11c-0.41-.05-0.8-0.12-1.16-0.2l0.05,0h0c0.1,0.05.13,0.09,0,.06h0a0.41,0.41,0,0,1-.1.16c-0.65-.09-0.1-0.11.1-0.16a0.3,0.3,0,0,0,0-.06h0L700,516A13.39,13.39,0,0,0,702.14,516Z" transform="translate(-424.68 -479.13)"/><path class="cls-7" d="M713.46,518.12a0.11,0.11,0,0,1-.07-0.1C713.24,518.07,713.18,518.11,713.46,518.12Z" transform="translate(-424.68 -479.13)"/><path class="cls-7" d="M712.53,517.86a1.25,1.25,0,0,1,.83-0.19c0.46,0.13,0,.21,0,0.35,0.32-.11,1.12-0.31.12-0.52l-0.16.06a4.07,4.07,0,0,1-1.92-.74A3.23,3.23,0,0,0,712.53,517.86Z" transform="translate(-424.68 -479.13)"/><path class="cls-7" d="M707.27,517l-1.88.21,1,0.37,0-.22C707.36,517.47,707.13,517.19,707.27,517Z" transform="translate(-424.68 -479.13)"/><polygon class="cls-7" points="272.33 36.54 272.58 36.09 271.49 36.73 272.33 36.54"/><polygon class="cls-7" points="269.89 36.6 269.98 36.2 269.33 36.44 269.89 36.6"/><path class="cls-7" d="M556.8,520.64l-0.55.11A3.14,3.14,0,0,0,556.8,520.64Z" transform="translate(-424.68 -479.13)"/><path class="cls-7" d="M560.79,520.67l0.1-.19C560.71,520.58,560.63,520.66,560.79,520.67Z" transform="translate(-424.68 -479.13)"/><path class="cls-7" d="M634.61,515.78c-0.8-.37-1.7-0.94-1.61-0.5l0.25,0.43A3.42,3.42,0,0,1,634.61,515.78Z" transform="translate(-424.68 -479.13)"/><path class="cls-7" d="M593.54,518.37l0.24,0.13,0.54-.41Z" transform="translate(-424.68 -479.13)"/><path class="cls-7" d="M593,520.16l-1.06-.28A5.56,5.56,0,0,0,593,520.16Z" transform="translate(-424.68 -479.13)"/><path class="cls-7" d="M535,521.1l-0.64.44C535.33,521.54,534.89,521.32,535,521.1Z" transform="translate(-424.68 -479.13)"/><path class="cls-7" d="M669.56,515.89a8.78,8.78,0,0,0-1.73-.26C668.67,515.88,669.34,516.25,669.56,515.89Z" transform="translate(-424.68 -479.13)"/><path class="cls-7" d="M558.37,516c-0.34.08-.48,0.17-0.47,0.26C558.24,516.23,558.44,516.14,558.37,516Z" transform="translate(-424.68 -479.13)"/><path class="cls-7" d="M665.83,515.63l0.37,0.1a8.36,8.36,0,0,1,1.64-.1A2.84,2.84,0,0,0,665.83,515.63Z" transform="translate(-424.68 -479.13)"/><path class="cls-7" d="M455.81,520.74l-0.18-.05C455.61,520.75,455.69,520.75,455.81,520.74Z" transform="translate(-424.68 -479.13)"/><path class="cls-7" d="M432.75,516.36c0.23,0,.6,0,0.95,0A3.57,3.57,0,0,0,432.75,516.36Z" transform="translate(-424.68 -479.13)"/><path class="cls-7" d="M684.74,515.54c0.52,0,.08,0,0,0h0Z" transform="translate(-424.68 -479.13)"/><path class="cls-7" d="M687.26,517.26a0.29,0.29,0,0,0-.21.21A0.38,0.38,0,0,1,687.26,517.26Z" transform="translate(-424.68 -479.13)"/><path class="cls-7" d="M660.67,518.33h0C660.78,518.42,660.75,518.4,660.67,518.33Z" transform="translate(-424.68 -479.13)"/><path class="cls-7" d="M685.52,515.74a4.87,4.87,0,0,0-.66-0.13A5,5,0,0,0,685.52,515.74Z" transform="translate(-424.68 -479.13)"/><path class="cls-7" d="M685.42,515.53l0.45,0C685.94,515.5,685.88,515.46,685.42,515.53Z" transform="translate(-424.68 -479.13)"/><path class="cls-7" d="M684,515.57a5.92,5.92,0,0,1,.84,0c-0.1,0-.14-0.05-0.12-0.07Z" transform="translate(-424.68 -479.13)"/><path class="cls-7" d="M498.22,519.58l-0.11,0C497.59,519.72,497.82,519.69,498.22,519.58Z" transform="translate(-424.68 -479.13)"/><path class="cls-7" d="M621.13,520.28l0.06,0-0.08,0Z" transform="translate(-424.68 -479.13)"/><path class="cls-7" d="M619.27,520.61a2,2,0,0,1,1.84-.36L620.5,519Z" transform="translate(-424.68 -479.13)"/><path class="cls-7" d="M547.23,520.77l1.31,0.39c-1.58.64-2.72,0.42-1.49,1,0.18-1.36,5.08-.14,5.26-1.5l0.86,0.29c-0.25,0-.29.07-0.53,0.05,1.67,0.65,1.24-1,3.4-.79,0.75,0.1,1.28.3,0.76,0.46l1.68-.34c0.49,0,.37.26-0.12,0.24l2.56-.11,0,0a12.16,12.16,0,0,1,1.59-.68c0.65,0.19-.33.14-0.16,0.31l1.41-.33c0.58,0.35-.6.69-1.57,0.64,1.32,1.36,1.17-.34,4,0.45l-1.34.17c0.86,0.77,1.9.49,3.41,1-0.36-.25-3-1.21-1.49-1.55a3.19,3.19,0,0,0,1.83-.12c0,0.48.82,0.36,1.83,0.34l-0.07.64a3.85,3.85,0,0,0,1.65-.8,1.83,1.83,0,0,1,1.76,1c2,0.1-1.35-.79,1-0.91a12.51,12.51,0,0,0,4.71-.4c1.14,0.22-.2.39,0.21,0.57l1-.51c0.25,0,.17.17,0.13,0.25,0.85-.2.07-0.64,1.4-0.81,0.36-.7,2.74,1,4.39.23,0.41,0.18-.2.39-0.07,0.64a18.22,18.22,0,0,0,3.8-1.09l1.59,0.42c-1.17-.48.32-1,1.63-1.52-0.41-.23-0.77-0.43-1-0.53l2.08-.34c0.25,0.1,0,.32-0.3.59l0.38-.15c0.74,0.24.36,0.61-.17,1l-0.75-.39a1.55,1.55,0,0,0-.89,1.19,2.2,2.2,0,0,1,.68-0.17c-0.13.11-.22,0.2-0.16,0.26a1.11,1.11,0,0,0,.63-0.24l0.47,0.71,0.11-.28,2.72,0.45c1.95-.72,3.64-1.77,6.73-2.07-0.77.52-.16,0.85-0.21,1.47-0.84-.66-2.39.28-4,0.15,0.84,0.07.65,0.36,0.44,0.47l2.86-.6c-0.06.51,0.61,0.38,1.35,0.59-0.56-1,2.13-.67,3.29-1,0.07,0.34-.21.68-1.63,0.6,1.57,0.75,2-1.18,3.56-.54a0.79,0.79,0,0,0-.67.13c0.81-.3,2.79-0.06,2.32.23h-0.35c2.3,0.12,7,0,7.34-.84a4.16,4.16,0,0,1-.44,1.2l4.1-2.86c-0.36.73,1,2.47-.88,2.88a5.21,5.21,0,0,0,2.38,0c-0.37-.1-0.93-1.06-0.42-1.12a12.06,12.06,0,0,0,2.7,1.13c-0.56-.16.06-1.3,0.95-1.27-0.14.17,0.07,1.13-.25,1.25l2.2-1.12c-0.55.2-.1,1,0.4,1.27-0.23-.22,1.9,0,2.49-0.09L630.7,520c2.49,0.17,2.46-1.58,4.92-1.52a0.88,0.88,0,0,0,.52,1.57c0.57-.58,2.55-2.77,4.73-3.21l0.42,0.33,1.67-.37a33.5,33.5,0,0,1-5.57,3.4c0.93,0.26.26,0.39,1.65,0.36,0.49,0.31-.76.47-1.17,0.49l3.24,0.2c-0.14-.67,2.48-0.67,2.36-1.23l-3.52.7c-0.14-.67,2-1.91,4.34-1.79,0.58,0.27-.44,1.2-0.39,1.42a5.12,5.12,0,0,1,2.39-.28l-1,.36c1.28,0.25,2.09-.89,3.63-0.25,0.53,0,1.58.87,1.68,0.47-0.87-.77-1-3.14-0.46-3.72a23.37,23.37,0,0,1,3.39,1.11c0.87,0.6-1.31,1.43-.57,2a1.36,1.36,0,0,1,.72-0.48c0.56,0.16-.23.57,1,0.49,0.2-.68,2.46.06,0.57-0.58,1.18-.19,1.26.14,2.65,0.11-0.44-.44,1.25-1.5,2.44-1.69a0.62,0.62,0,0,0,.33.5c2.43,0.06,3.73.37,6,.38,0.21,0.16,1.3.36,0.84,0.66a3.08,3.08,0,0,1,1.32-.37c1.35,0.59-1.56.09-.53,0.8,0.09-.4,1.81-0.55,2.8-0.79-0.31-.61-2.3-0.12-3.29.13,0-.84,1.73-1.73,4.1-2.12,1.88-.21.82,0.55,1.14,0.43,3.53,0.15,3-1.47,5.94-.86,1.16,0.54.05,1.07,0.31,1.46-1.53.2-2.35-.34-3.39-0.32l1.28,0.25a4.29,4.29,0,0,1-2.07.16c1,0.48,6,.09,8.7.54,0.48-.18,1.32-0.37.92-0.58l-0.86.08c-0.79-.43,1.62-0.6.53-0.8a9.38,9.38,0,0,1,4.08-.54l0.31,0.61a1.92,1.92,0,0,0-1.52-.18c0.68-.27,2.5.83,3.24,0l-1.14-.42c1.16-.31,2.6-1,4-0.77-0.66-.61-0.33.07-1.36-0.64,0.89,0.88-3.69,0-2.26.89-1.05-.82-1.82-0.35-3.2-1,0,0.2.49,0.39-.72,0.29a1.23,1.23,0,0,1-.27.18l-0.08,0,0.07,0c-0.05,0-.06,0,0,0a1.44,1.44,0,0,1,.62.31c-0.6.46-2.53,0.45-3.18,0.69-0.72-.1.3-0.23-0.09-0.45l-1,.36c-0.1-.45-1.91-0.75-0.22-1l-1.52,0a6.54,6.54,0,0,0-2.89-.16c-0.72-.1-1.82.5-1.19,0.15l-2.39.28,0-.11c-2.36-.06-4.86.74-7.55-0.07a10.85,10.85,0,0,1-2.94.12l-0.26-.39c-1,.14-3.06-0.39-3.5,0-1.1-1-4.95-.23-6.74-0.41l-0.07.51a25.15,25.15,0,0,0-4,.32l0.09,0.45c-1.32.37-3.4-.32-5.49-0.27a1.33,1.33,0,0,1,1,0c-2.5-1-5.27.74-7.53,0a2.29,2.29,0,0,1-1.37,0l0.14,0h-0.23c-0.25-.08-0.51-0.17-0.78-0.24a3.29,3.29,0,0,0,.66.24,12.51,12.51,0,0,0-1.74.18l-0.28-.48H633.1c-0.63-.18-0.51.23-0.17,0.59a4.16,4.16,0,0,0-.86.29c-0.52-.78-1.7.26-2.4-0.57-0.44.4-3.25,0.3-3.6,1.15,0-.11-0.21-0.16.14-0.17a4.36,4.36,0,0,0-2.09,0l-0.31-.61-1.57.82c-1-.37-1.35-0.59-0.4-1.06-2.29.72-1.86,0.27-3.81,1l0.1-.4c-0.7,0-1.81.55-2.23,0.22-1.56-.75-7.72-0.1-11.72-0.8,0.78,1.17-1.86-.52-2,0.38-0.23-.28-0.79-0.43-0.14-0.67-2,.27-3.07-0.44-4.48.32-0.23-.28.44-0.4,0.23-0.57a1.14,1.14,0,0,1-.86.08c-0.21-.16.3-0.23,0.62-0.35-2.09,0-2.3.9-2.45,1.69a2.18,2.18,0,0,0-2.35.2c-0.37-.26-1-0.53.31-0.63-0.73,0-4.46-.38-4.53.26a2.11,2.11,0,0,0-1.21,0c-1.64,0-1.78-.1-3.39,0l0.45,0.1c-0.63.77-1.34,0.17-2.63,0.26l0-.08c-3-.56-1.28.27-4.22-0.37l0.16,0.48c-0.27,1-2.6-.61-4.3-0.21l0.61,0.27c-0.93.35-2.6-1.4-3.53-1.53-0.2-.09.32-0.14,0.61-0.21-2.44-.61-0.32.63-2.14,0.77-0.34-.34.43-0.86-0.79-0.92-0.61-.27-3.55,1.1-5.23.45,0.37,0.26.73,0.52-.11,0.72-1.3.09-3.5-1-4.68-.16a0.32,0.32,0,0,1-.23-0.2c-1,.21-3.22.35-3.82,0.8-0.92-1.66-6.16.81-6.14-.72l-3,.08,0.08-.16a5.27,5.27,0,0,0-3.32.63c-0.45-.1-0.12-0.25-0.08-0.33a9.43,9.43,0,0,0-5.52.52l-0.25-.5c-0.65.29-4.12-.78-6.91-0.2a0.44,0.44,0,0,1,.31-0.22c-3.14.58-7.52-1.37-8.67,0.43l-2.07.44c2.68,0.14-.4.78,0.7,1.08-1.05.11-2.73-.54-1.43-0.64l0.2,0.09c0.48-.94-3.33-0.33-3.26-1-5.28,0-10.42-.47-15.37-0.51l0.57,0.73-1.72,0c-0.45-.17-0.61-0.57.62-0.54-0.65-.41-2.06.35-2.1,0.51-2.41-.3.94-0.85,0.2-0.87l-1,.05,0.23,0.09a4.05,4.05,0,0,1-2.36.58c-0.94-.15-0.48-0.45-0.85-0.48,0-.05-0.12-0.08-0.56,0l-2.17-.06,0.87,0.58c-1,.28-2,0-1,0.62-1.47-1-8.1-.36-9-0.68a12.77,12.77,0,0,1-4.33.36c0.41,0.12.66,0.77-.77,0.69,0.52-1.34-2.6-.58-3.75-1.55,1,0.64-4,.16-2.43,1.07-1.19-.11-0.07-0.5-1-0.82-2.82.52-6.23-.34-9.72-0.16-0.05.18,0.53,0.44-.22,0.71l-1.84-.88c-0.69.09-.63,1-1.89,0.4,0.18,0.15.44,0.37,0,.43-6.84-.86-14,0.7-20.92-0.91,0.94,0.34.31,0.37-.4,0.39,0.47,0.08,0,.43.08,0.67l-2.91-.66c-0.53.66-3.12,0-3.42,0.68l0.92-.11c-1.22.75,1.71,1.66,1.53,2.62,1.37-.85,3.62,1.26,5.87,0,0.5,0.2-.42.31-0.16,0.53a3.24,3.24,0,0,1,2.54-.31l-0.14.1c3.59-.1,5.12.3,9.15,0.57l-0.3-.47a4.55,4.55,0,0,1,1.45.33c1-.72-2.43,0-1.53-0.83,1.15,1,6.1,0,6.88,1.11,1.33,0-.39-0.55.94-0.54l0.35,0.3,0.34-.38a1.36,1.36,0,0,1,1.35.68,4.72,4.72,0,0,0-.83.09c1.13,0.35,3.19-.12,3.58,0l-1.28-.18c3.63-.28,8.07.11,11.58-0.49l-0.27-.22c2.68-.41,2.15.25,5.09,0.05l-0.11.05a5.89,5.89,0,0,1,2.18-.31c-0.74.26,1.4,0.51,0.42,0.8,2.91-.44,1.44-0.35,3.36-1.18l0.44,0.37A3.67,3.67,0,0,1,483,519c-1.21.32,0.94,0.57-.41,1,3.09,0.81,4.58-.82,6,0.37,1.42-1-2.67-.57-1.88-0.79-0.66-.34,1.17-0.77,2.14-0.66s1.68,1.31,4.16,1.29c-0.25,0-.26.07-0.51,0.07,0.93,0.26,1.82-.35,3,0.07,0.64-.62,1.48,0,1.66-0.76l-2.27.18c1.29-.21,2.5-1.13,4.62-0.68a4.18,4.18,0,0,1-1.23.49c0.62,0.23,1.2-.15,1.84.08-0.18.79-2.76,0.17-4.15,0.78,0.67,0.33,2.61-.57,1.92.28,1-1.09,2.44.14,4.12-.7l-0.11.47a4.45,4.45,0,0,1,1.31-.29l-0.89.62c1.36-.52,2.62.46,3.92,0.17-2.73,0-.61-0.57-1.77-0.92,3.37-.64,1.94,1.24,5.71,1-0.51.07-1.92-.29-1.12-0.5a7.33,7.33,0,0,1,2.11.53c2.5-.1-0.38-0.49.68-0.78,0.85,0.58,1.23-.24,2.32-0.42v0.48c2.85,0.31.75-1,3.32-.63l-1.08.67,1.34-.17-0.28.55a6.73,6.73,0,0,1,3.33-.15c-0.33-.34.19-0.88,1.45-0.89,0.86,0.29-.48.46,1.31,0.39a1.27,1.27,0,0,1-1.62.24c-0.08.16-.4,0.3-0.48,0.46a9,9,0,0,0,3,.07,2.55,2.55,0,0,1-.7-0.11l2.59-.67c0.41,0.18.08,0.33-.24,0.47a16.63,16.63,0,0,1,1.66-.32,1.24,1.24,0,0,1-1.24,1l2.47-.44c0.16,0.17,1.27.47,0.95,0.61,1.37,0.23,3.36-.76,5.17-0.46a1.45,1.45,0,0,1,.67-0.2c1.7,0.09,3.22.57,5.24,0l1.15,0.7c1.58-.16-1.55-0.89,1.08-1.15,1.87-.22.7,0.6,1.35,0.8a6.15,6.15,0,0,1,4.25-.5A10.18,10.18,0,0,1,547.23,520.77Zm19.52-.31c-0.38.1-1.13,0.41-1.41,0.13C565.77,520,566.1,520.3,566.75,520.46Zm29.67-1.16a1.54,1.54,0,0,1-1.21-.1A3.17,3.17,0,0,1,596.42,519.29Zm82.65-3.36,0,0C678.18,515.77,678.48,515.84,679.07,515.94Zm1.75,0.21c0.18-.07.16-0.13,0.09-0.2a1.61,1.61,0,0,1-1,.1A0.89,0.89,0,0,0,680.82,516.14Zm-188.13.19,0.34,0.13C492.26,516.6,492.48,516.47,492.69,516.33Z" transform="translate(-424.68 -479.13)"/><path class="cls-7" d="M593.05,520a0.44,0.44,0,0,1-.16-0.26C592.74,519.77,592.74,519.87,593.05,520Z" transform="translate(-424.68 -479.13)"/><path class="cls-7" d="M535.09,521H535a0.2,0.2,0,0,0-.06.09Z" transform="translate(-424.68 -479.13)"/><path class="cls-7" d="M653.68,520.23A1.81,1.81,0,0,1,653,520C653,520.1,653.13,520.2,653.68,520.23Z" transform="translate(-424.68 -479.13)"/><path class="cls-7" d="M690.1,515.32l-1.12.13a2.42,2.42,0,0,1,1,.16C690,515.5,689.75,515.33,690.1,515.32Z" transform="translate(-424.68 -479.13)"/><path class="cls-7" d="M699.84,518.31c0.16-.06.35,0,0.51-0.07l0-.22C699.61,518,699.12,518.21,699.84,518.31Z" transform="translate(-424.68 -479.13)"/><path class="cls-7" d="M691.14,516.93c0.09,0.41.79,0.27,1.58,0.19h-0.14C692.81,516.55,692,516.74,691.14,516.93Z" transform="translate(-424.68 -479.13)"/><path class="cls-7" d="M692.9,517.11a4.59,4.59,0,0,1,.73,0C693.72,516.87,693.34,517,692.9,517.11Z" transform="translate(-424.68 -479.13)"/><path class="cls-7" d="M683,515.88c0.37,0.1.23-.52,0.44-0.35C683.9,515,681,516.15,683,515.88Z" transform="translate(-424.68 -479.13)"/><polygon class="cls-7" points="267.1 39.13 266.82 38.63 266.38 39.03 267.1 39.13"/><path class="cls-7" d="M685.57,517.9l1.26,0.14c0-.08.14-0.13,0.34-0.17A4,4,0,0,0,685.57,517.9Z" transform="translate(-424.68 -479.13)"/><path class="cls-7" d="M687.16,517.86a3.2,3.2,0,0,0,1-.08A7.26,7.26,0,0,0,687.16,517.86Z" transform="translate(-424.68 -479.13)"/><polygon class="cls-7" points="265.38 39.28 265.01 39.18 264.12 39.14 265.38 39.28"/><path class="cls-7" d="M672.07,517.8l-1.37.14c-0.14.17,0.23,0.28,0.74,0.21C671.77,518,672.28,518,672.07,517.8Z" transform="translate(-424.68 -479.13)"/><path class="cls-7" d="M676.22,519.17a1.25,1.25,0,0,1-.6-0.38l0,0.62Z" transform="translate(-424.68 -479.13)"/><path class="cls-7" d="M672.22,519.32c-0.14.17-2,.49-0.25,0.46C672.11,519.6,673.48,519.46,672.22,519.32Z" transform="translate(-424.68 -479.13)"/><polygon class="cls-7" points="226.88 39.4 227.23 39.39 227.18 38.37 226.88 39.4"/><path class="cls-7" d="M633.36,521c1.62,0.24.39-.63,1.85-0.32,0.38-.24-1.2-0.25-0.81-0.46C633.42,520.44,632.91,520.3,633.36,521Z" transform="translate(-424.68 -479.13)"/><path class="cls-7" d="M634.4,520.19a4.84,4.84,0,0,0,.5-0.15A2.14,2.14,0,0,0,634.4,520.19Z" transform="translate(-424.68 -479.13)"/><polygon class="cls-7" points="4.24 36.68 3.19 36.47 3.87 36.81 4.24 36.68"/><path class="cls-7" d="M426.91,516.57l-0.25-.65-0.63.59A1.46,1.46,0,0,1,426.91,516.57Z" transform="translate(-424.68 -479.13)"/><path class="cls-7" d="M569.65,521.76l0.08-.16a1.3,1.3,0,0,0-.9-0.21Z" transform="translate(-424.68 -479.13)"/><polygon class="cls-7" points="130.8 42.14 131.04 42.16 130.59 41.57 130.8 42.14"/><path class="cls-7" d="M543.59,522c0.49,0,1.06-.11,1.54-0.08C544.08,522.05,543.46,521.29,543.59,522Z" transform="translate(-424.68 -479.13)"/></svg>