<svg id="Шар_1" data-name="Шар 1" xmlns="http://www.w3.org/2000/svg" viewBox="0 0 349.5 281.57"><defs><style>.cls-1{font-size:36px;}.cls-1,.cls-4,.cls-5,.cls-8{fill:#fff;}.cls-1,.cls-4,.cls-5{font-family:Myriad Pro;}.cls-2,.cls-4,.cls-6{font-weight:700;}.cls-3,.cls-6{letter-spacing:-1px;}.cls-4,.cls-5{font-size:21px;}.cls-7{font-size:14px;}</style></defs><title>galaattrinity</title><text class="cls-1" transform="translate(0.01 30.13)"><tspan class="cls-2">G<tspan x="24.84" y="0">ala </tspan><tspan x="80.03" y="0">a</tspan><tspan x="98.75" y="0">t</tspan><tspan class="cls-3" x="111.96" y="0"> </tspan><tspan class="cls-3" x="117.83" y="0">T</tspan><tspan x="135.61" y="0">rini</tspan><tspan x="190.11" y="0">t</tspan><tspan x="203.5" y="0">y</tspan></tspan><tspan x="0" y="43.2">S</tspan><tspan x="17.86" y="43.2">a</tspan><tspan x="35.06" y="43.2">t</tspan><tspan x="46.87" y="43.2">, Jul 30th, 2 pm</tspan></text><text class="cls-4" transform="translate(271.77 73.33) scale(1.01 1)"> </text><text class="cls-5" transform="translate(0.01 98.53)"><tspan class="cls-2"> </tspan><tspan class="cls-6" x="3.42" y="0">T</tspan><tspan class="cls-2" x="13.8" y="0">rini</tspan><tspan class="cls-2" x="45.59" y="0">t</tspan><tspan class="cls-2" x="53.4" y="0">y Uno</tspan><tspan class="cls-2" x="107.37" y="0">t</tspan><tspan class="cls-2" x="114.97" y="0">ed </tspan><tspan class="cls-2" x="142.82" y="0">C</tspan><tspan class="cls-2" x="155.25" y="0">hu</tspan><tspan class="cls-2" x="179.8" y="0">r</tspan><tspan class="cls-2" x="187.61" y="0">ch.</tspan><tspan class="cls-7" x="0" y="16.8">T</tspan><tspan class="cls-7" x="6.86" y="16.8">he </tspan><tspan class="cls-7" x="24.61" y="16.8">P</tspan><tspan class="cls-7" x="31.84" y="16.8">r</tspan><tspan class="cls-7" x="36.27" y="16.8">oms will end with a bang: </tspan><tspan class="cls-7" x="187.79" y="16.8">G</tspan><tspan class="cls-7" x="196.95" y="16.8">ala </tspan><tspan class="cls-7" x="216.71" y="16.8">C</tspan><tspan class="cls-7" x="224.68" y="16.8">on</tspan><tspan class="cls-7" x="240.13" y="16.8">c</tspan><tspan class="cls-7" x="246.32" y="16.8">e</tspan><tspan class="cls-7" x="253.34" y="16.8">r</tspan><tspan class="cls-7" x="258.25" y="16.8">t will include </tspan><tspan class="cls-7" x="0" y="33.6">the highlig</tspan><tspan class="cls-7" x="63.43" y="33.6">h</tspan><tspan class="cls-7" x="71.15" y="33.6">ts f</tspan><tspan class="cls-7" x="88.38" y="33.6">r</tspan><tspan class="cls-7" x="92.82" y="33.6">om the </tspan><tspan class="cls-7" x="137.53" y="33.6">f</tspan><tspan class="cls-7" x="141.44" y="33.6">esti</tspan><tspan class="cls-7" x="161.91" y="33.6">v</tspan><tspan class="cls-7" x="168.58" y="33.6">al - classica</tspan><tspan class="cls-7" x="232.58" y="33.6">l</tspan><tspan class="cls-7" x="235.74" y="33.6">, c</tspan><tspan class="cls-7" x="247.88" y="33.6">r</tspan><tspan class="cls-7" x="252.32" y="33.6">oss</tspan><tspan class="cls-7" x="271.09" y="33.6">o</tspan><tspan class="cls-7" x="278.68" y="33.6">v</tspan><tspan class="cls-7" x="285.27" y="33.6">e</tspan><tspan class="cls-7" x="292.28" y="33.6">r</tspan><tspan class="cls-7" x="296.12" y="33.6">, and </tspan><tspan class="cls-7" x="0" y="50.4">ope</tspan><tspan class="cls-7" x="22.67" y="50.4">r</tspan><tspan class="cls-7" x="27.17" y="50.4">a</tspan><tspan class="cls-7" x="33.87" y="50.4">tic musi</tspan><tspan class="cls-7" x="79.23" y="50.4">c</tspan><tspan class="cls-7" x="85.36" y="50.4">.</tspan><tspan class="cls-7" x="88.25" y="50.4"> </tspan><tspan class="cls-7" x="90.65" y="50.4">T</tspan><tspan class="cls-7" x="97.51" y="50.4">he </tspan><tspan class="cls-7" x="115.26" y="50.4">c</tspan><tspan class="cls-7" x="121.45" y="50.4">on</tspan><tspan class="cls-7" x="136.9" y="50.4">c</tspan><tspan class="cls-7" x="143.09" y="50.4">e</tspan><tspan class="cls-7" x="150.1" y="50.4">r</tspan><tspan class="cls-7" x="155.02" y="50.4">t </tspan><tspan class="cls-7" x="162.62" y="50.4">f</tspan><tspan class="cls-7" x="166.53" y="50.4">e</tspan><tspan class="cls-7" x="173.54" y="50.4">a</tspan><tspan class="cls-7" x="180.23" y="50.4">tu</tspan><tspan class="cls-7" x="192.58" y="50.4">r</tspan><tspan class="cls-7" x="197.02" y="50.4">es </tspan><tspan class="cls-7" x="212.54" y="50.4">t</tspan><tspan class="cls-7" x="217.09" y="50.4">enor </tspan><tspan class="cls-7" x="247.11" y="50.4">P</tspan><tspan class="cls-7" x="254.19" y="50.4">aul </tspan><tspan class="cls-7" x="274.92" y="50.4">M</tspan><tspan class="cls-7" x="286.26" y="50.4">oo</tspan><tspan class="cls-7" x="301.64" y="50.4">r</tspan><tspan class="cls-7" x="306.07" y="50.4">e</tspan><tspan class="cls-7" x="312.92" y="50.4">, </tspan><tspan class="cls-7" x="0" y="67.2">sop</tspan><tspan class="cls-7" x="21.2" y="67.2">r</tspan><tspan class="cls-7" x="25.7" y="67.2">ano </tspan><tspan class="cls-7" x="50.87" y="67.2">S</tspan><tspan class="cls-7" x="57.74" y="67.2">t</tspan><tspan class="cls-7" x="62.29" y="67.2">ephanie Na</tspan><tspan class="cls-7" x="128.77" y="67.2">k</tspan><tspan class="cls-7" x="135.59" y="67.2">ag</tspan><tspan class="cls-7" x="150.16" y="67.2">a</tspan><tspan class="cls-7" x="156.8" y="67.2">w</tspan><tspan class="cls-7" x="167.05" y="67.2">a, Ko</tspan><tspan class="cls-7" x="194.93" y="67.2">k</tspan><tspan class="cls-7" x="201.75" y="67.2">anee Singer</tspan><tspan class="cls-7" x="270.63" y="67.2">s</tspan><tspan class="cls-7" x="276.02" y="67.2">, </tspan><tspan class="cls-7" x="281.88" y="67.2">I</tspan><tspan class="cls-7" x="285.37" y="67.2">nspi</tspan><tspan class="cls-7" x="309.92" y="67.2">r</tspan><tspan class="cls-7" x="314.43" y="67.2">a</tspan><tspan class="cls-7" x="321.13" y="67.2">ti </tspan><tspan class="cls-7" x="0" y="84">Cho</tspan><tspan class="cls-7" x="23.58" y="84">r</tspan><tspan class="cls-7" x="28.08" y="84">al</tspan><tspan class="cls-7" x="38.13" y="84">e</tspan><tspan class="cls-7" x="44.98" y="84">, with singers f</tspan><tspan class="cls-7" x="128.41" y="84">r</tspan><tspan class="cls-7" x="132.84" y="84">om f</tspan><tspan class="cls-7" x="159.26" y="84">r</tspan><tspan class="cls-7" x="163.7" y="84">ee </tspan><tspan class="cls-7" x="180.69" y="84">w</tspan><tspan class="cls-7" x="190.86" y="84">o</tspan><tspan class="cls-7" x="198.54" y="84">r</tspan><tspan class="cls-7" x="203.18" y="84">kshop</tspan><tspan class="cls-7" x="238.71" y="84">s</tspan><tspan class="cls-7" x="244.1" y="84">.</tspan><tspan class="cls-7" x="0" y="117.6">T</tspan><tspan class="cls-7" x="6.79" y="117.6">ickets </tspan><tspan class="cls-7" x="43.06" y="117.6">a</tspan><tspan class="cls-7" x="49.76" y="117.6">t ticketselle</tspan><tspan class="cls-7" x="115.93" y="117.6">r</tspan><tspan class="cls-7" x="119.77" y="117.6">.ca </tspan><tspan class="cls-7" x="0" y="134.4">A</tspan><tspan class="cls-7" x="8.4" y="134.4">dults $28, </tspan><tspan class="cls-7" x="67.87" y="134.4">S</tspan><tspan class="cls-7" x="74.86" y="134.4">eniors/</tspan><tspan class="cls-7" x="115.52" y="134.4">S</tspan><tspan class="cls-7" x="122.38" y="134.4">tude</tspan><tspan class="cls-7" x="149.64" y="134.4">n</tspan><tspan class="cls-7" x="157.36" y="134.4">ts $25</tspan><tspan class="cls-7" x="0" y="151.2">K</tspan><tspan class="cls-7" x="7.73" y="151.2">ids under 12 f</tspan><tspan class="cls-7" x="86.77" y="151.2">r</tspan><tspan class="cls-7" x="91.21" y="151.2">ee</tspan></text><line class="cls-8" x1="1.36" y1="35.7" x2="280.12" y2="35.7"/><path class="cls-8" d="M704.48,795.19c0.41,0,.26-0.38.33-0.46C704.11,794.82,704.49,795.29,704.48,795.19Z" transform="translate(-424.68 -761.92)"/><polygon class="cls-8" points="273 34.22 273.12 34.05 272.12 34.47 273 34.22"/><path class="cls-8" d="M691.33,796.13c0.6,0.71,2.3-.12,3.43.14l0.19,0.16,0.51-.57A21.67,21.67,0,0,1,691.33,796.13Z" transform="translate(-424.68 -761.92)"/><path class="cls-8" d="M687.94,794.58c0.21,0.28-.73.24,0.79,0.09l-0.14-.07C688.45,794.61,688.26,794.6,687.94,794.58Z" transform="translate(-424.68 -761.92)"/><path class="cls-8" d="M688.59,794.6c0.67,0-.44-0.23,0,0h0Z" transform="translate(-424.68 -761.92)"/><path class="cls-8" d="M685.5,794.76l0.88-.25c-0.18-.16-1-0.2-0.68-0.32C684.8,794.33,685,794.49,685.5,794.76Z" transform="translate(-424.68 -761.92)"/><path class="cls-8" d="M684.66,795.28l0.46-.11C685,795.11,684.92,795.08,684.66,795.28Z" transform="translate(-424.68 -761.92)"/><path class="cls-8" d="M686.09,795l-1,.22c0.13,0.12.14,0.35,0.44-.08C685.49,795.31,685.68,795.1,686.09,795Z" transform="translate(-424.68 -761.92)"/><path class="cls-8" d="M686.64,795.06c0.49,0.16,1.13.25,0.25,0.5C688.57,795.47,688.32,795,686.64,795.06Z" transform="translate(-424.68 -761.92)"/><path class="cls-8" d="M691,796.87l0.66,0.21,0.57-.24C692,797,691,796.64,691,796.87Z" transform="translate(-424.68 -761.92)"/><path class="cls-8" d="M680,794.39a2,2,0,0,0,.36.6l0.65-.17A1.8,1.8,0,0,1,680,794.39Z" transform="translate(-424.68 -761.92)"/><path class="cls-8" d="M680.37,795l-1,.26C680.27,795.28,680.43,795.16,680.37,795Z" transform="translate(-424.68 -761.92)"/><polygon class="cls-8" points="259.83 34.16 261.43 33.61 259.52 34.16 259.83 34.16"/><polygon class="cls-8" points="251.61 32.45 252.16 32.1 251.18 32.63 251.61 32.45"/><path class="cls-8" d="M673.82,794.43c0.41-.29-0.56-0.49-0.13-0.67a5.37,5.37,0,0,0-1.76.53A3.48,3.48,0,0,1,673.82,794.43Z" transform="translate(-424.68 -761.92)"/><path class="cls-8" d="M671.07,794.62a6.14,6.14,0,0,0,.87-0.33A3.15,3.15,0,0,0,671.07,794.62Z" transform="translate(-424.68 -761.92)"/><path class="cls-8" d="M677.74,795.18a1.07,1.07,0,0,0-.77-0.43l0.38,0.43h0.38Z" transform="translate(-424.68 -761.92)"/><path class="cls-8" d="M677.37,795.18h0l-0.83,0Z" transform="translate(-424.68 -761.92)"/><path class="cls-8" d="M677.83,795.18h-0.1S677.8,795.23,677.83,795.18Z" transform="translate(-424.68 -761.92)"/><path class="cls-8" d="M682,795.69c-0.57.24-1.77,0.5-.61,0.86C681.75,796.25,681.09,796,682,795.69Z" transform="translate(-424.68 -761.92)"/><path class="cls-8" d="M678.31,795.71l1,0.1c0-.11-0.21-0.28.08-0.4Z" transform="translate(-424.68 -761.92)"/><polygon class="cls-8" points="253.13 33.93 253.63 33.8 253.25 33.76 253.13 33.93"/><path class="cls-8" d="M672.84,795a4.45,4.45,0,0,1-1.49.23,12.74,12.74,0,0,0,1.78.13C673.22,795.24,673.48,795,672.84,795Z" transform="translate(-424.68 -761.92)"/><path class="cls-8" d="M675,795.13l-0.1,0C675,795.2,675.05,795.21,675,795.13Z" transform="translate(-424.68 -761.92)"/><path class="cls-8" d="M665.92,795.24l0.09,0.08,0-.07h-0.11Z" transform="translate(-424.68 -761.92)"/><path class="cls-8" d="M673.24,795.46a1.34,1.34,0,0,0,1-.15,8.9,8.9,0,0,1-1.06.07C673.1,795.44,673.1,795.48,673.24,795.46Z" transform="translate(-424.68 -761.92)"/><path class="cls-8" d="M669.55,794.82a6.85,6.85,0,0,0,.77.23A1.11,1.11,0,0,0,669.55,794.82Z" transform="translate(-424.68 -761.92)"/><path class="cls-8" d="M674.79,795l0.07,0C674.71,794.93,674.73,795,674.79,795Z" transform="translate(-424.68 -761.92)"/><path class="cls-8" d="M674.79,795a2.84,2.84,0,0,0-.59.26,4.85,4.85,0,0,0,.74-0.14A0.65,0.65,0,0,1,674.79,795Z" transform="translate(-424.68 -761.92)"/><path class="cls-8" d="M664.27,798c0.08-.4,1.25-0.76,2.26-0.34,1-.3.34-1.6-0.52-2.33,0,0.17,0,.33-1.05.57,0.36,0.22,2.27.51,1.41,0.86-1.35.2-1.11-.14-1.77-0.35,0.56,0.49-1.72.72-1.43,1.44l1.19-.26C664.37,797.7,663.94,797.88,664.27,798Z" transform="translate(-424.68 -761.92)"/><path class="cls-8" d="M668,795.36l0.42,0a4.6,4.6,0,0,1-1.45-.54,1.16,1.16,0,0,0-.89.47l2.07,0.06Z" transform="translate(-424.68 -761.92)"/><path class="cls-8" d="M670.26,795.31c-0.33.43-1.34,0.61-.72,1.08,1.23,0,.87-0.36,1.6-0.55-2,.11.57-0.24-0.87-0.48a8,8,0,0,1,1.08-.11c-0.36-.05-0.7-0.12-1-0.2l0,0h0c0.09,0.05.11,0.09,0,.06h0a0.42,0.42,0,0,1-.09.16c-0.58-.09-0.09-0.11.09-0.16a0.32,0.32,0,0,0,0-.06h0l-2,.24A10.49,10.49,0,0,0,670.26,795.31Z" transform="translate(-424.68 -761.92)"/><path class="cls-8" d="M680.28,797.47a0.11,0.11,0,0,1-.06-0.1C680.09,797.43,680,797.46,680.28,797.47Z" transform="translate(-424.68 -761.92)"/><path class="cls-8" d="M679.46,797.21a1,1,0,0,1,.74-0.19c0.41,0.13,0,.21,0,0.35,0.28-.11,1-0.31.1-0.52l-0.14.06a3.4,3.4,0,0,1-1.7-.74A3,3,0,0,0,679.46,797.21Z" transform="translate(-424.68 -761.92)"/><path class="cls-8" d="M674.8,796.37l-1.66.21L674,797l0-.22C674.89,796.82,674.69,796.54,674.8,796.37Z" transform="translate(-424.68 -761.92)"/><polygon class="cls-8" points="241.05 33.11 241.27 32.66 240.31 33.3 241.05 33.11"/><polygon class="cls-8" points="238.89 33.17 238.97 32.77 238.4 33.01 238.89 33.17"/><path class="cls-8" d="M541.7,800l-0.49.11A2.5,2.5,0,0,0,541.7,800Z" transform="translate(-424.68 -761.92)"/><path class="cls-8" d="M545.24,800l0.09-.19C545.16,799.93,545.09,800,545.24,800Z" transform="translate(-424.68 -761.92)"/><path class="cls-8" d="M610.53,795.13c-0.71-.37-1.51-0.94-1.42-0.5l0.22,0.43A2.69,2.69,0,0,1,610.53,795.13Z" transform="translate(-424.68 -761.92)"/><path class="cls-8" d="M574.21,797.72l0.21,0.13,0.48-.41Z" transform="translate(-424.68 -761.92)"/><path class="cls-8" d="M573.7,799.51l-0.94-.28A4.47,4.47,0,0,0,573.7,799.51Z" transform="translate(-424.68 -761.92)"/><path class="cls-8" d="M522.39,800.45l-0.57.44C522.72,800.89,522.32,800.67,522.39,800.45Z" transform="translate(-424.68 -761.92)"/><path class="cls-8" d="M641.45,795.24a6.94,6.94,0,0,0-1.53-.26C640.66,795.23,641.26,795.61,641.45,795.24Z" transform="translate(-424.68 -761.92)"/><path class="cls-8" d="M543.09,795.39c-0.3.08-.43,0.17-0.42,0.26C543,795.58,543.16,795.5,543.09,795.39Z" transform="translate(-424.68 -761.92)"/><path class="cls-8" d="M638.15,795l0.32,0.1a6.56,6.56,0,0,1,1.45-.1A2.24,2.24,0,0,0,638.15,795Z" transform="translate(-424.68 -761.92)"/><path class="cls-8" d="M452.37,800.1l-0.16-.05C452.2,800.1,452.27,800.11,452.37,800.1Z" transform="translate(-424.68 -761.92)"/><path class="cls-8" d="M432,795.72c0.2,0,.53,0,0.84,0A2.8,2.8,0,0,0,432,795.72Z" transform="translate(-424.68 -761.92)"/><path class="cls-8" d="M654.88,794.9c0.46,0,.07,0,0,0h0Z" transform="translate(-424.68 -761.92)"/><path class="cls-8" d="M657.11,796.61a0.28,0.28,0,0,0-.18.21A0.36,0.36,0,0,1,657.11,796.61Z" transform="translate(-424.68 -761.92)"/><path class="cls-8" d="M633.58,797.68h0C633.68,797.77,633.66,797.75,633.58,797.68Z" transform="translate(-424.68 -761.92)"/><path class="cls-8" d="M655.57,795.09A3.86,3.86,0,0,0,655,795,4,4,0,0,0,655.57,795.09Z" transform="translate(-424.68 -761.92)"/><path class="cls-8" d="M655.48,794.89l0.4,0C655.93,794.86,655.88,794.81,655.48,794.89Z" transform="translate(-424.68 -761.92)"/><path class="cls-8" d="M654.24,794.92a4.64,4.64,0,0,1,.74,0c-0.09,0-.13-0.05-0.1-0.07Z" transform="translate(-424.68 -761.92)"/><path class="cls-8" d="M489.89,798.93l-0.1,0C489.33,799.07,489.53,799,489.89,798.93Z" transform="translate(-424.68 -761.92)"/><path class="cls-8" d="M598.61,799.63l0.05,0-0.07,0Z" transform="translate(-424.68 -761.92)"/><path class="cls-8" d="M597,800a1.63,1.63,0,0,1,1.63-.36L598,798.35Z" transform="translate(-424.68 -761.92)"/><path class="cls-8" d="M533.24,800.12l1.16,0.39c-1.39.64-2.4,0.42-1.32,1,0.16-1.36,4.49-.14,4.65-1.5l0.76,0.29c-0.22,0-.25.07-0.47,0.05,1.48,0.65,1.1-1,3-.79,0.67,0.1,1.13.3,0.68,0.46l1.48-.34c0.43,0,.33.26-0.1,0.24l2.26-.11,0,0a10.15,10.15,0,0,1,1.41-.68c0.57,0.19-.29.14-0.14,0.31l1.25-.33c0.51,0.35-.53.69-1.39,0.64,1.17,1.36,1-.34,3.56.45l-1.18.17c0.76,0.77,1.68.49,3,1-0.32-.25-2.67-1.21-1.32-1.55a2.52,2.52,0,0,0,1.62-.12c0,0.48.72,0.36,1.62,0.34l-0.06.64a3.27,3.27,0,0,0,1.46-.8,1.61,1.61,0,0,1,1.56,1c1.73,0.1-1.19-.79.85-0.91a9.84,9.84,0,0,0,4.16-.4c1,0.22-.18.39,0.18,0.57l0.89-.51c0.22,0,.15.17,0.11,0.25,0.75-.2.06-0.64,1.24-0.81,0.32-.7,2.42,1,3.89.23,0.36,0.18-.17.39-0.06,0.64a14.72,14.72,0,0,0,3.37-1.09l1.4,0.42c-1-.48.29-1,1.44-1.52a9.76,9.76,0,0,0-.89-0.53l1.84-.34c0.22,0.1,0,.32-0.26.59l0.34-.15c0.66,0.24.32,0.61-.15,1l-0.66-.39a1.56,1.56,0,0,0-.79,1.19,1.77,1.77,0,0,1,.6-0.17c-0.12.11-.19,0.2-0.14,0.26a0.91,0.91,0,0,0,.56-0.24l0.42,0.71,0.1-.28,2.41,0.45c1.72-.72,3.22-1.77,6-2.07-0.68.52-.15,0.85-0.18,1.47-0.75-.66-2.12.28-3.54,0.15,0.74,0.07.58,0.36,0.39,0.47l2.53-.6c-0.06.51,0.54,0.38,1.2,0.59-0.5-1,1.88-.67,2.91-1,0.06,0.34-.18.68-1.44,0.6,1.38,0.75,1.79-1.18,3.15-.54a0.64,0.64,0,0,0-.59.13c0.72-.3,2.47-0.06,2.05.23h-0.31c2,0.12,6.19,0,6.5-.84a4.52,4.52,0,0,1-.39,1.2l3.63-2.86c-0.32.73,0.91,2.47-.78,2.88a4.09,4.09,0,0,0,2.1,0c-0.33-.1-0.82-1.06-0.37-1.12a10,10,0,0,0,2.39,1.13c-0.5-.16.06-1.3,0.84-1.27-0.12.17,0.07,1.13-.22,1.25l1.95-1.12c-0.49.2-.09,1,0.35,1.27-0.2-.22,1.68,0,2.2-0.09l-0.83-.26c2.2,0.17,2.17-1.58,4.35-1.52-0.26.23-.65,1.43,0.46,1.57,0.51-.58,2.25-2.77,4.18-3.21l0.37,0.33,1.48-.37a29.26,29.26,0,0,1-4.92,3.4c0.82,0.26.23,0.39,1.46,0.36,0.44,0.31-.67.47-1,0.49l2.87,0.2c-0.13-.67,2.19-0.67,2.08-1.23l-3.12.7c-0.13-.67,1.8-1.91,3.84-1.79,0.52,0.27-.39,1.2-0.34,1.42a4,4,0,0,1,2.12-.28l-0.86.36c1.13,0.25,1.85-.89,3.21-0.25,0.47,0,1.4.87,1.48,0.47-0.77-.77-0.92-3.14-0.4-3.72a19,19,0,0,1,3,1.11c0.77,0.6-1.16,1.43-.5,2a1.21,1.21,0,0,1,.63-0.48c0.49,0.16-.2.57,0.87,0.49,0.18-.68,2.18.06,0.51-0.58,1-.19,1.11.14,2.34,0.11-0.39-.44,1.1-1.5,2.15-1.69a0.63,0.63,0,0,0,.29.5c2.15,0.06,3.3.37,5.3,0.38,0.18,0.16,1.15.36,0.74,0.66a2.5,2.5,0,0,1,1.17-.37c1.2,0.59-1.38.09-.47,0.8,0.08-.4,1.6-0.55,2.48-0.79-0.27-.61-2-0.12-2.91.13,0-.84,1.53-1.73,3.62-2.12,1.66-.21.72,0.55,1,0.43,3.13,0.15,2.66-1.47,5.26-.86,1,0.54,0,1.07.27,1.46-1.36.2-2.08-.34-3-0.32l1.13,0.25a3.38,3.38,0,0,1-1.83.16c0.86,0.48,5.28.09,7.69,0.54,0.43-.18,1.17-0.37.82-0.58l-0.76.08c-0.7-.43,1.44-0.6.47-0.8a7.42,7.42,0,0,1,3.61-.54l0.27,0.61a1.53,1.53,0,0,0-1.35-.18c0.6-.27,2.21.83,2.87,0l-1-.42c1-.31,2.3-1,3.57-0.77-0.58-.61-0.29.07-1.2-0.64,0.79,0.88-3.27,0-2,.89-0.93-.82-1.61-0.35-2.83-1,0,0.2.43,0.39-.64,0.29a1.09,1.09,0,0,1-.24.18l-0.07,0,0.06,0s-0.05,0,0,0a1.23,1.23,0,0,1,.55.31c-0.53.46-2.24,0.45-2.81,0.69-0.64-.1.27-0.23-0.08-0.45l-0.86.36c-0.09-.45-1.69-0.75-0.19-1l-1.35,0a5.14,5.14,0,0,0-2.56-.16c-0.64-.1-1.61.5-1.05,0.15l-2.12.28,0-.11c-2.09-.06-4.3.74-6.68-0.07a8.51,8.51,0,0,1-2.6.12l-0.23-.39c-0.9.14-2.71-.39-3.1,0-1-1-4.38-.23-6-0.41l-0.06.51a19.74,19.74,0,0,0-3.49.32l0.08,0.45c-1.17.37-3-.32-4.85-0.27a1.05,1.05,0,0,1,.93,0c-2.21-1-4.66.74-6.66,0a1.8,1.8,0,0,1-1.21,0l0.12,0h-0.2c-0.22-.08-0.45-0.17-0.69-0.24a2.7,2.7,0,0,0,.58.24,9.83,9.83,0,0,0-1.54.18l-0.24-.48H609.2c-0.56-.18-0.45.23-0.15,0.59a3.4,3.4,0,0,0-.76.29c-0.46-.78-1.5.26-2.12-0.57-0.39.4-2.88,0.3-3.18,1.15,0-.11-0.19-0.16.12-0.17a3.43,3.43,0,0,0-1.85,0l-0.27-.61-1.39.82c-0.85-.37-1.2-0.59-0.36-1.06-2,.72-1.65.27-3.37,1l0.08-.4c-0.62,0-1.6.55-2,.22-1.38-.75-6.83-0.1-10.37-0.8,0.69,1.17-1.65-.52-1.79.38-0.21-.28-0.7-0.43-0.13-0.67-1.81.27-2.72-.44-4,0.32-0.21-.28.39-0.4,0.2-0.57a0.9,0.9,0,0,1-.76.08c-0.18-.16.26-0.23,0.55-0.35-1.85,0-2,.9-2.17,1.69a1.75,1.75,0,0,0-2.08.2c-0.33-.26-0.87-0.53.28-0.63-0.65,0-3.94-.38-4,0.26a1.66,1.66,0,0,0-1.07,0c-1.45,0-1.58-.1-3,0l0.39,0.1c-0.56.77-1.18,0.17-2.33,0.26l0-.08c-2.63-.56-1.13.27-3.73-0.37l0.14,0.48c-0.24,1-2.3-.61-3.8-0.21l0.54,0.27c-0.82.35-2.3-1.4-3.12-1.53-0.18-.09.28-0.14,0.54-0.21-2.16-.61-0.28.63-1.89,0.77-0.3-.34.38-0.86-0.7-0.92-0.54-.27-3.14,1.1-4.62.45,0.33,0.26.65,0.52-.1,0.72-1.15.09-3.1-1-4.14-.16a0.3,0.3,0,0,1-.21-0.2c-0.88.21-2.85,0.35-3.38,0.8-0.81-1.66-5.45.81-5.43-.72l-2.7.08,0.07-.16a4.23,4.23,0,0,0-2.94.63c-0.4-.1-0.11-0.25-0.07-0.33a7.45,7.45,0,0,0-4.88.52l-0.22-.5c-0.57.29-3.64-.78-6.11-0.2a0.4,0.4,0,0,1,.27-0.22c-2.78.58-6.65-1.37-7.67,0.43l-1.83.44c2.37,0.14-.35.78,0.62,1.08-0.93.11-2.41-.54-1.27-0.64l0.18,0.09c0.42-.94-2.95-0.33-2.88-1-4.67,0-9.22-.47-13.59-0.51l0.5,0.73-1.53,0c-0.4-.17-0.54-0.57.55-0.54-0.57-.41-1.82.35-1.86,0.51-2.13-.3.83-0.85,0.18-0.87l-0.89.05,0.2,0.09a3.27,3.27,0,0,1-2.09.58c-0.83-.15-0.42-0.45-0.75-0.48,0-.05-0.11-0.08-0.5,0l-1.92-.06,0.77,0.58c-0.85.28-1.81,0-.92,0.62-1.3-1-7.17-.36-8-0.68a10,10,0,0,1-3.83.36c0.36,0.12.58,0.77-.68,0.69,0.46-1.34-2.3-.58-3.32-1.55,0.91,0.64-3.58.16-2.15,1.07-1-.11-0.06-0.5-0.86-0.82-2.5.52-5.51-.34-8.6-0.16,0,0.18.47,0.44-.19,0.71l-1.63-.88c-0.61.09-.56,1-1.68,0.4,0.16,0.15.39,0.37,0,.43-6.05-.86-12.36.7-18.51-0.91,0.83,0.34.28,0.37-.36,0.39,0.41,0.08,0,.43.07,0.67l-2.57-.66c-0.47.66-2.76,0-3,.68l0.81-.11c-1.08.75,1.52,1.66,1.36,2.62,1.21-.85,3.2,1.26,5.19,0,0.44,0.2-.37.31-0.14,0.53a2.59,2.59,0,0,1,2.24-.31l-0.13.1c3.17-.1,4.53.3,8.1,0.57l-0.26-.47a3.65,3.65,0,0,1,1.29.33c0.88-.72-2.15,0-1.35-0.83,1,1,5.4,0,6.09,1.11,1.18,0-.35-0.55.83-0.54l0.31,0.3,0.3-.38a1.19,1.19,0,0,1,1.19.68,3.71,3.71,0,0,0-.73.09c1,0.35,2.82-.12,3.17,0l-1.13-.18c3.21-.28,7.14.11,10.25-0.49l-0.24-.22c2.37-.41,1.9.25,4.5,0.05l-0.09.05a4.66,4.66,0,0,1,1.93-.31c-0.66.26,1.24,0.51,0.37,0.8,2.57-.44,1.27-0.35,3-1.18l0.39,0.37a3,3,0,0,1,1.93-.61c-1.07.32,0.83,0.57-.36,1,2.73,0.81,4.05-.82,5.3.37,1.25-1-2.36-.57-1.66-0.79-0.59-.34,1-0.77,1.89-0.66s1.48,1.31,3.68,1.29c-0.22,0-.23.07-0.45,0.07,0.82,0.26,1.61-.35,2.61.07,0.56-.62,1.31,0,1.47-0.76l-2,.18c1.14-.21,2.21-1.13,4.09-0.68a3.47,3.47,0,0,1-1.09.49c0.55,0.23,1.06-.15,1.63.08-0.16.79-2.44,0.17-3.67,0.78,0.59,0.33,2.31-.57,1.7.28,0.88-1.09,2.16.14,3.65-.7l-0.1.47a3.56,3.56,0,0,1,1.15-.29l-0.78.62c1.2-.52,2.32.46,3.47,0.17-2.41,0-.54-0.57-1.56-0.92,3-.64,1.71,1.24,5,1-0.45.07-1.69-.29-1-0.5a5.89,5.89,0,0,1,1.86.53c2.21-.1-0.34-0.49.6-0.78,0.75,0.58,1.08-.24,2.05-0.42v0.48c2.52,0.31.67-1,2.93-.63l-1,.67,1.18-.17-0.24.55a5.29,5.29,0,0,1,2.95-.15c-0.29-.34.16-0.88,1.28-0.89,0.76,0.29-.43.46,1.15,0.39a1,1,0,0,1-1.44.24c-0.07.16-.35,0.3-0.42,0.46a7.08,7.08,0,0,0,2.63.07,2,2,0,0,1-.62-0.11l2.29-.67c0.36,0.18.07,0.33-.21,0.47a13.21,13.21,0,0,1,1.47-.32,1.15,1.15,0,0,1-1.1,1l2.18-.44c0.15,0.17,1.12.47,0.84,0.61,1.21,0.23,3-.76,4.57-0.46a1.19,1.19,0,0,1,.59-0.2c1.51,0.09,2.84.57,4.63,0l1,0.7c1.4-.16-1.37-0.89,1-1.15,1.65-.22.62,0.6,1.19,0.8a4.89,4.89,0,0,1,3.76-.5A8,8,0,0,1,533.24,800.12Zm17.26-.31c-0.33.1-1,.41-1.25,0.13C549.64,799.38,549.93,799.65,550.5,799.81Zm26.25-1.16a1.22,1.22,0,0,1-1.07-.1A2.5,2.5,0,0,1,576.75,798.65Zm73.11-3.36,0,0C649.08,795.12,649.34,795.2,649.86,795.29Zm1.55,0.21c0.16-.07.14-0.13,0.08-0.2a1.27,1.27,0,0,1-.85.1A0.72,0.72,0,0,0,651.41,795.5ZM485,795.69l0.3,0.13C484.62,796,484.81,795.83,485,795.69Z" transform="translate(-424.68 -761.92)"/><path class="cls-8" d="M573.77,799.31a0.45,0.45,0,0,1-.14-0.26C573.5,799.13,573.49,799.22,573.77,799.31Z" transform="translate(-424.68 -761.92)"/><path class="cls-8" d="M522.5,800.37h-0.05a0.2,0.2,0,0,0-.05.09Z" transform="translate(-424.68 -761.92)"/><path class="cls-8" d="M627.41,799.59a1.49,1.49,0,0,1-.62-0.25C626.77,799.46,626.92,799.56,627.41,799.59Z" transform="translate(-424.68 -761.92)"/><path class="cls-8" d="M659.62,794.68l-1,.13a1.92,1.92,0,0,1,.89.16C659.5,794.85,659.31,794.69,659.62,794.68Z" transform="translate(-424.68 -761.92)"/><path class="cls-8" d="M668.24,797.66c0.14-.06.31,0,0.45-0.07l0-.22C668,797.39,667.6,797.57,668.24,797.66Z" transform="translate(-424.68 -761.92)"/><path class="cls-8" d="M660.54,796.28c0.08,0.41.7,0.27,1.4,0.19h-0.12C662,795.91,661.28,796.09,660.54,796.28Z" transform="translate(-424.68 -761.92)"/><path class="cls-8" d="M662.1,796.46a3.6,3.6,0,0,1,.64,0C662.82,796.22,662.48,796.4,662.1,796.46Z" transform="translate(-424.68 -761.92)"/><path class="cls-8" d="M653.37,795.23c0.33,0.1.21-.52,0.39-0.35C654.14,794.36,651.57,795.5,653.37,795.23Z" transform="translate(-424.68 -761.92)"/><polygon class="cls-8" points="236.42 35.7 236.17 35.2 235.78 35.6 236.42 35.7"/><path class="cls-8" d="M655.61,797.25l1.11,0.14c0-.08.12-0.13,0.3-0.17A3.18,3.18,0,0,0,655.61,797.25Z" transform="translate(-424.68 -761.92)"/><path class="cls-8" d="M657,797.22a2.52,2.52,0,0,0,.89-0.08A5.7,5.7,0,0,0,657,797.22Z" transform="translate(-424.68 -761.92)"/><polygon class="cls-8" points="234.9 35.85 234.58 35.75 233.79 35.71 234.9 35.85"/><path class="cls-8" d="M643.67,797.15l-1.21.14c-0.12.17,0.21,0.28,0.66,0.21C643.41,797.39,643.86,797.32,643.67,797.15Z" transform="translate(-424.68 -761.92)"/><path class="cls-8" d="M647.34,798.53a1.1,1.1,0,0,1-.53-0.38l0,0.62Z" transform="translate(-424.68 -761.92)"/><path class="cls-8" d="M643.8,798.67c-0.12.17-1.76,0.49-.22,0.46C643.7,799,644.91,798.81,643.8,798.67Z" transform="translate(-424.68 -761.92)"/><polygon class="cls-8" points="200.85 35.97 201.16 35.96 201.12 34.94 200.85 35.97"/><path class="cls-8" d="M609.43,800.32c1.44,0.24.34-.63,1.64-0.32,0.34-.24-1.06-0.25-0.72-0.46C609.48,799.79,609,799.65,609.43,800.32Z" transform="translate(-424.68 -761.92)"/><path class="cls-8" d="M610.35,799.54a3.93,3.93,0,0,0,.44-0.15A1.74,1.74,0,0,0,610.35,799.54Z" transform="translate(-424.68 -761.92)"/><polygon class="cls-8" points="3.91 33.25 2.98 33.04 3.58 33.38 3.91 33.25"/><path class="cls-8" d="M426.81,795.93l-0.22-.65-0.55.59A1.15,1.15,0,0,1,426.81,795.93Z" transform="translate(-424.68 -761.92)"/><path class="cls-8" d="M553.07,801.12l0.07-.16a1,1,0,0,0-.79-0.21Z" transform="translate(-424.68 -761.92)"/><polygon class="cls-8" points="115.86 38.71 116.07 38.73 115.67 38.14 115.86 38.71"/><path class="cls-8" d="M530,801.38c0.43,0,.93-0.11,1.36-0.08C530.45,801.4,529.9,800.65,530,801.38Z" transform="translate(-424.68 -761.92)"/></svg>