<svg id="Шар_1" data-name="Шар 1" xmlns="http://www.w3.org/2000/svg" viewBox="0 0 380.12 276.42"><defs><style>.cls-1,.cls-2{font-size:36px;}.cls-1,.cls-2,.cls-3,.cls-8{fill:#fff;}.cls-1,.cls-2,.cls-3{font-family:Myriad Pro;}.cls-1,.cls-4,.cls-5{font-weight:700;}.cls-3{font-size:21px;}.cls-5{letter-spacing:-0.99px;}.cls-6,.cls-7{font-size:14px;}.cls-6{white-space:pre;}</style></defs><title>operainthepark</title><text class="cls-1" transform="translate(96.92 30.13) scale(1.01 1)">O<tspan x="25.96" y="0">p</tspan><tspan x="47.59" y="0">e</tspan><tspan x="66.6" y="0">r</tspan><tspan x="79.88" y="0">a in the </tspan><tspan x="204.98" y="0">P</tspan><tspan x="225.25" y="0">a</tspan><tspan x="244.26" y="0">r</tspan><tspan x="257.83" y="0">k</tspan></text><text class="cls-2" transform="translate(104.09 73.33)">S<tspan x="17.86" y="0">a</tspan><tspan x="35.06" y="0">t</tspan><tspan x="46.87" y="0">, Jul 16th, 5 pm</tspan></text><text class="cls-3" transform="translate(375.85 73.33) scale(1.01 1)"><tspan class="cls-4"> </tspan><tspan class="cls-4" x="-302.67" y="25.2">with</tspan><tspan class="cls-4" x="-260.96" y="25.2"> </tspan><tspan class="cls-5" x="-257.54" y="25.2">T</tspan><tspan class="cls-4" x="-247.73" y="25.2">o</tspan><tspan class="cls-4" x="-235.55" y="25.2">onie </tspan><tspan class="cls-4" x="-190.05" y="25.2">A</tspan><tspan class="cls-4" x="-176.4" y="25.2">ll</tspan><tspan class="cls-4" x="-164.85" y="25.2">e</tspan><tspan class="cls-4" x="-153.89" y="25.2">y a</tspan><tspan class="cls-4" x="-127.57" y="25.2">r</tspan><tspan class="cls-4" x="-119.15" y="25.2">t </tspan><tspan class="cls-4" x="-107.2" y="25.2">e</tspan><tspan class="cls-4" x="-96.37" y="25.2">xhiibition. </tspan><tspan class="cls-4" x="-354.25" y="50.4">P</tspan><tspan class="cls-4" x="-342.55" y="50.4">olson </tspan><tspan class="cls-4" x="-286.88" y="50.4">P</tspan><tspan class="cls-4" x="-275.06" y="50.4">a</tspan><tspan class="cls-4" x="-263.97" y="50.4">r</tspan><tspan class="cls-4" x="-256.05" y="50.4">k</tspan><tspan class="cls-4" x="-244.58" y="50.4">. </tspan><tspan class="cls-4" x="-234.88" y="50.4">F</tspan><tspan class="cls-4" x="-224.24" y="50.4">r</tspan><tspan class="cls-4" x="-216.42" y="50.4">ee! </tspan><tspan x="-184.38" y="50.4">(don</tspan><tspan x="-143.39" y="50.4">a</tspan><tspan x="-133.35" y="50.4">tions </tspan><tspan x="-85.53" y="50.4">w</tspan><tspan x="-70.29" y="50.4">el</tspan><tspan x="-54.81" y="50.4">c</tspan><tspan x="-45.53" y="50.4">ome)</tspan><tspan class="cls-6" x="-351.65" y="67.2">an  e</tspan><tspan class="cls-7" x="-324.18" y="67.2">v</tspan><tspan class="cls-7" x="-317.59" y="67.2">ening of ope</tspan><tspan class="cls-7" x="-243.55" y="67.2">r</tspan><tspan class="cls-7" x="-239.05" y="67.2">a and music the</tspan><tspan class="cls-7" x="-147.08" y="67.2">a</tspan><tspan class="cls-7" x="-140.39" y="67.2">t</tspan><tspan class="cls-7" x="-135.76" y="67.2">r</tspan><tspan class="cls-7" x="-131.32" y="67.2">e f</tspan><tspan class="cls-7" x="-117.25" y="67.2">a</tspan><tspan class="cls-7" x="-110.61" y="67.2">v</tspan><tspan class="cls-7" x="-104.02" y="67.2">ou</tspan><tspan class="cls-7" x="-88.62" y="67.2">r</tspan><tspan class="cls-7" x="-83.98" y="67.2">i</tspan><tspan class="cls-7" x="-80.71" y="67.2">t</tspan><tspan class="cls-7" x="-76.16" y="67.2">e</tspan><tspan class="cls-7" x="-69.14" y="67.2">s</tspan><tspan class="cls-7" x="-63.75" y="67.2">, hos</tspan><tspan class="cls-7" x="-36.89" y="67.2">t</tspan><tspan class="cls-7" x="-32.34" y="67.2">ed </tspan><tspan class="cls-7" x="-14.46" y="67.2">b</tspan><tspan class="cls-7" x="-6.59" y="67.2">y </tspan><tspan class="cls-7" x="-340.06" y="84">V</tspan><tspan class="cls-7" x="-332.71" y="84">e</tspan><tspan class="cls-7" x="-325.69" y="84">r</tspan><tspan class="cls-7" x="-321.06" y="84">no</tspan><tspan class="cls-7" x="-305.6" y="84">n</tspan><tspan class="cls-7" x="-297.93" y="84">&apos;s </tspan><tspan class="cls-7" x="-286.79" y="84">o</tspan><tspan class="cls-7" x="-279.2" y="84">wn </tspan><tspan class="cls-7" x="-258.16" y="84">P</tspan><tspan class="cls-7" x="-251.07" y="84">aul </tspan><tspan class="cls-7" x="-230.34" y="84">M</tspan><tspan class="cls-7" x="-219" y="84">oo</tspan><tspan class="cls-7" x="-203.63" y="84">r</tspan><tspan class="cls-7" x="-199.19" y="84">e</tspan><tspan class="cls-7" x="-192.34" y="84">, an a</tspan><tspan class="cls-7" x="-162.24" y="84">cc</tspan><tspan class="cls-7" x="-149.87" y="84">omplished ope</tspan><tspan class="cls-7" x="-62.1" y="84">r</tspan><tspan class="cls-7" x="-57.6" y="84">a</tspan><tspan class="cls-7" x="-50.9" y="84">tic </tspan><tspan class="cls-7" x="-33.75" y="84">t</tspan><tspan class="cls-7" x="-29.2" y="84">eno</tspan><tspan class="cls-7" x="-6.73" y="84">r</tspan><tspan class="cls-7" x="-2.9" y="84">, </tspan><tspan class="cls-7" x="-367.59" y="100.8">cho</tspan><tspan class="cls-7" x="-345.86" y="100.8">r</tspan><tspan class="cls-7" x="-341.36" y="100.8">al di</tspan><tspan class="cls-7" x="-317.16" y="100.8">r</tspan><tspan class="cls-7" x="-312.73" y="100.8">e</tspan><tspan class="cls-7" x="-305.71" y="100.8">c</tspan><tspan class="cls-7" x="-299.26" y="100.8">t</tspan><tspan class="cls-7" x="-294.71" y="100.8">o</tspan><tspan class="cls-7" x="-287.02" y="100.8">r</tspan><tspan class="cls-7" x="-283.19" y="100.8">, and </tspan><tspan class="cls-7" x="-251.94" y="100.8">v</tspan><tspan class="cls-7" x="-245.35" y="100.8">ocal </tspan><tspan class="cls-7" x="-218.37" y="100.8">t</tspan><tspan class="cls-7" x="-213.82" y="100.8">eache</tspan><tspan class="cls-7" x="-179" y="100.8">r</tspan><tspan class="cls-7" x="-175.16" y="100.8">. Guest a</tspan><tspan class="cls-7" x="-125.63" y="100.8">r</tspan><tspan class="cls-7" x="-120.72" y="100.8">tists include sop</tspan><tspan class="cls-7" x="-26.71" y="100.8">r</tspan><tspan class="cls-7" x="-22.2" y="100.8">ano </tspan><tspan class="cls-7" x="-349.67" y="117.6">S</tspan><tspan class="cls-7" x="-342.81" y="117.6">t</tspan><tspan class="cls-7" x="-338.26" y="117.6">ephanie Na</tspan><tspan class="cls-7" x="-271.78" y="117.6">k</tspan><tspan class="cls-7" x="-264.96" y="117.6">ag</tspan><tspan class="cls-7" x="-250.39" y="117.6">a</tspan><tspan class="cls-7" x="-243.75" y="117.6">w</tspan><tspan class="cls-7" x="-233.5" y="117.6">a (</tspan><tspan class="cls-7" x="-219.81" y="117.6">S</tspan><tspan class="cls-7" x="-212.87" y="117.6">almon </tspan><tspan class="cls-7" x="-172.72" y="117.6">A</tspan><tspan class="cls-7" x="-164.19" y="117.6">r</tspan><tspan class="cls-7" x="-159.56" y="117.6">m n</tspan><tspan class="cls-7" x="-137.14" y="117.6">a</tspan><tspan class="cls-7" x="-130.45" y="117.6">ti</tspan><tspan class="cls-7" x="-122.54" y="117.6">v</tspan><tspan class="cls-7" x="-115.95" y="117.6">e who n</tspan><tspan class="cls-7" x="-69.47" y="117.6">o</tspan><tspan class="cls-7" x="-61.88" y="117.6">w </tspan><tspan class="cls-7" x="-48.61" y="117.6">w</tspan><tspan class="cls-7" x="-38.44" y="117.6">o</tspan><tspan class="cls-7" x="-30.76" y="117.6">r</tspan><tspan class="cls-7" x="-26.12" y="117.6">ks in </tspan><tspan class="cls-7" x="-336.97" y="134.4">V</tspan><tspan class="cls-7" x="-329.62" y="134.4">an</tspan><tspan class="cls-7" x="-315.11" y="134.4">c</tspan><tspan class="cls-7" x="-308.92" y="134.4">ou</tspan><tspan class="cls-7" x="-293.52" y="134.4">v</tspan><tspan class="cls-7" x="-286.92" y="134.4">er), 8</tspan><tspan class="cls-7" x="-258.31" y="134.4">-</tspan><tspan class="cls-7" x="-254.08" y="134.4">v</tspan><tspan class="cls-7" x="-247.49" y="134.4">oi</tspan><tspan class="cls-7" x="-236.52" y="134.4">c</tspan><tspan class="cls-7" x="-230.34" y="134.4">e a capella </tspan><tspan class="cls-7" x="-166.32" y="134.4">I</tspan><tspan class="cls-7" x="-162.83" y="134.4">nspi</tspan><tspan class="cls-7" x="-138.27" y="134.4">r</tspan><tspan class="cls-7" x="-133.77" y="134.4">a</tspan><tspan class="cls-7" x="-127.07" y="134.4">ti Cho</tspan><tspan class="cls-7" x="-92.62" y="134.4">r</tspan><tspan class="cls-7" x="-88.11" y="134.4">al</tspan><tspan class="cls-7" x="-78.06" y="134.4">e</tspan><tspan class="cls-7" x="-71.22" y="134.4">, and other</tspan><tspan class="cls-7" x="-8.29" y="134.4">s</tspan><tspan class="cls-7" x="-2.9" y="134.4">. </tspan></text><line class="cls-8" x1="95.02" y1="38.62" x2="375.81" y2="38.62"/><path class="cls-8" d="M402.15,515.83c0.41,0,.27-0.38.33-0.46C401.79,515.47,402.17,515.94,402.15,515.83Z" transform="translate(-26.67 -479.65)"/><polygon class="cls-8" points="368.64 37.14 368.76 36.97 367.75 37.39 368.64 37.14"/><path class="cls-8" d="M388.91,516.78c0.61,0.71,2.32-.12,3.46.14l0.19,0.16,0.51-.57A22,22,0,0,1,388.91,516.78Z" transform="translate(-26.67 -479.65)"/><path class="cls-8" d="M385.5,515.23c0.21,0.28-.74.24,0.8,0.09l-0.14-.07C386,515.25,385.82,515.25,385.5,515.23Z" transform="translate(-26.67 -479.65)"/><path class="cls-8" d="M386.15,515.25c0.67,0-.44-0.23,0,0h0Z" transform="translate(-26.67 -479.65)"/><path class="cls-8" d="M383,515.41l0.89-.25c-0.19-.16-1-0.2-0.68-0.32C382.33,515,382.52,515.14,383,515.41Z" transform="translate(-26.67 -479.65)"/><path class="cls-8" d="M382.19,515.93l0.46-.11C382.57,515.75,382.45,515.73,382.19,515.93Z" transform="translate(-26.67 -479.65)"/><path class="cls-8" d="M383.63,515.6l-1,.22c0.13,0.12.14,0.35,0.45-.08C383,516,383.22,515.75,383.63,515.6Z" transform="translate(-26.67 -479.65)"/><path class="cls-8" d="M384.18,515.71c0.5,0.16,1.14.25,0.25,0.5C386.13,516.11,385.88,515.61,384.18,515.71Z" transform="translate(-26.67 -479.65)"/><path class="cls-8" d="M388.58,517.51l0.67,0.21,0.58-.24C389.54,517.6,388.54,517.29,388.58,517.51Z" transform="translate(-26.67 -479.65)"/><path class="cls-8" d="M377.51,515a2,2,0,0,0,.36.6l0.66-.17A1.82,1.82,0,0,1,377.51,515Z" transform="translate(-26.67 -479.65)"/><path class="cls-8" d="M377.87,515.64l-1,.26C377.77,515.93,377.93,515.8,377.87,515.64Z" transform="translate(-26.67 -479.65)"/><polygon class="cls-8" points="355.37 37.08 356.98 36.53 355.06 37.08 355.37 37.08"/><polygon class="cls-8" points="347.09 35.37 347.65 35.02 346.66 35.55 347.09 35.37"/><path class="cls-8" d="M371.27,515.08c0.41-.29-0.56-0.49-0.13-0.67a5.44,5.44,0,0,0-1.77.53A3.53,3.53,0,0,1,371.27,515.08Z" transform="translate(-26.67 -479.65)"/><path class="cls-8" d="M368.5,515.26a6.19,6.19,0,0,0,.87-0.33A3.19,3.19,0,0,0,368.5,515.26Z" transform="translate(-26.67 -479.65)"/><path class="cls-8" d="M375.22,515.82a1.08,1.08,0,0,0-.77-0.43l0.39,0.43h0.39Z" transform="translate(-26.67 -479.65)"/><path class="cls-8" d="M374.85,515.83h0l-0.83,0Z" transform="translate(-26.67 -479.65)"/><path class="cls-8" d="M375.32,515.82h-0.1S375.28,515.88,375.32,515.82Z" transform="translate(-26.67 -479.65)"/><path class="cls-8" d="M379.46,516.33c-0.58.24-1.78,0.5-.62,0.86C379.26,516.9,378.6,516.69,379.46,516.33Z" transform="translate(-26.67 -479.65)"/><path class="cls-8" d="M375.8,516.36l1,0.1c0-.11-0.21-0.28.08-0.4Z" transform="translate(-26.67 -479.65)"/><polygon class="cls-8" points="348.62 36.85 349.13 36.71 348.74 36.68 348.62 36.85"/><path class="cls-8" d="M370.29,515.66a4.52,4.52,0,0,1-1.5.23,12.91,12.91,0,0,0,1.8.13C370.67,515.89,370.93,515.65,370.29,515.66Z" transform="translate(-26.67 -479.65)"/><path class="cls-8" d="M372.5,515.78l-0.1,0C372.46,515.84,372.51,515.85,372.5,515.78Z" transform="translate(-26.67 -479.65)"/><path class="cls-8" d="M363.31,515.89L363.4,516l0-.07h-0.11Z" transform="translate(-26.67 -479.65)"/><path class="cls-8" d="M370.69,516.1a1.36,1.36,0,0,0,1-.15,9,9,0,0,1-1.07.07C370.55,516.08,370.54,516.12,370.69,516.1Z" transform="translate(-26.67 -479.65)"/><path class="cls-8" d="M367,515.46a6.94,6.94,0,0,0,.78.23A1.13,1.13,0,0,0,367,515.46Z" transform="translate(-26.67 -479.65)"/><path class="cls-8" d="M372.25,515.69l0.07,0C372.17,515.58,372.19,515.62,372.25,515.69Z" transform="translate(-26.67 -479.65)"/><path class="cls-8" d="M372.25,515.69a2.87,2.87,0,0,0-.59.26,4.92,4.92,0,0,0,.74-0.14A0.66,0.66,0,0,1,372.25,515.69Z" transform="translate(-26.67 -479.65)"/><path class="cls-8" d="M361.65,518.63c0.08-.4,1.26-0.76,2.27-0.34,1-.3.35-1.6-0.53-2.33,0,0.17,0,.33-1.06.57,0.36,0.22,2.29.51,1.42,0.86-1.36.2-1.12-.14-1.78-0.35,0.56,0.49-1.74.72-1.44,1.44l1.2-.26C361.76,518.35,361.32,518.53,361.65,518.63Z" transform="translate(-26.67 -479.65)"/><path class="cls-8" d="M365.36,516l0.42,0a4.66,4.66,0,0,1-1.47-.54,1.16,1.16,0,0,0-.9.47l2.09,0.06Z" transform="translate(-26.67 -479.65)"/><path class="cls-8" d="M367.69,516c-0.33.43-1.35,0.61-.73,1.08,1.24,0,.87-0.36,1.61-0.55-2,.11.58-0.24-0.87-0.48a8.15,8.15,0,0,1,1.08-.11c-0.36-.05-0.71-0.12-1-0.2l0,0h0c0.09,0.05.12,0.09,0,.06h0a0.42,0.42,0,0,1-.09.16c-0.58-.09-0.09-0.11.09-0.16a0.32,0.32,0,0,0,0-.06h0l-2,.24A10.64,10.64,0,0,0,367.69,516Z" transform="translate(-26.67 -479.65)"/><path class="cls-8" d="M377.78,518.12a0.11,0.11,0,0,1-.06-0.1C377.58,518.07,377.53,518.11,377.78,518.12Z" transform="translate(-26.67 -479.65)"/><path class="cls-8" d="M377,517.86a1,1,0,0,1,.74-0.19c0.41,0.13,0,.21,0,0.35,0.29-.11,1-0.31.1-0.52l-0.14.06a3.43,3.43,0,0,1-1.71-.74A3.06,3.06,0,0,0,377,517.86Z" transform="translate(-26.67 -479.65)"/><path class="cls-8" d="M372.26,517l-1.67.21,0.85,0.37,0-.22C372.35,517.47,372.14,517.19,372.26,517Z" transform="translate(-26.67 -479.65)"/><polygon class="cls-8" points="336.45 36.03 336.68 35.58 335.71 36.22 336.45 36.03"/><polygon class="cls-8" points="334.28 36.09 334.36 35.69 333.79 35.93 334.28 36.09"/><path class="cls-8" d="M238.19,520.64l-0.49.11A2.53,2.53,0,0,0,238.19,520.64Z" transform="translate(-26.67 -479.65)"/><path class="cls-8" d="M241.75,520.67l0.09-.19C241.68,520.58,241.61,520.66,241.75,520.67Z" transform="translate(-26.67 -479.65)"/><path class="cls-8" d="M307.52,515.78c-0.72-.37-1.52-0.94-1.43-0.5l0.22,0.43A2.73,2.73,0,0,1,307.52,515.78Z" transform="translate(-26.67 -479.65)"/><path class="cls-8" d="M270.93,518.37l0.21,0.13,0.48-.41Z" transform="translate(-26.67 -479.65)"/><path class="cls-8" d="M270.43,520.16l-0.94-.28A4.53,4.53,0,0,0,270.43,520.16Z" transform="translate(-26.67 -479.65)"/><path class="cls-8" d="M218.74,521.1l-0.57.44C219.07,521.54,218.67,521.32,218.74,521.1Z" transform="translate(-26.67 -479.65)"/><path class="cls-8" d="M338.67,515.89a7,7,0,0,0-1.54-.26C337.87,515.88,338.47,516.25,338.67,515.89Z" transform="translate(-26.67 -479.65)"/><path class="cls-8" d="M239.59,516c-0.3.08-.43,0.17-0.42,0.26C239.48,516.23,239.66,516.14,239.59,516Z" transform="translate(-26.67 -479.65)"/><path class="cls-8" d="M335.34,515.63l0.33,0.1a6.65,6.65,0,0,1,1.46-.1A2.27,2.27,0,0,0,335.34,515.63Z" transform="translate(-26.67 -479.65)"/><path class="cls-8" d="M148.21,520.74l-0.16-.05C148,520.75,148.11,520.75,148.21,520.74Z" transform="translate(-26.67 -479.65)"/><path class="cls-8" d="M127.66,516.36c0.2,0,.53,0,0.84,0A2.84,2.84,0,0,0,127.66,516.36Z" transform="translate(-26.67 -479.65)"/><path class="cls-8" d="M352.19,515.54c0.46,0,.07,0,0,0h0Z" transform="translate(-26.67 -479.65)"/><path class="cls-8" d="M354.44,517.26a0.28,0.28,0,0,0-.18.21A0.36,0.36,0,0,1,354.44,517.26Z" transform="translate(-26.67 -479.65)"/><path class="cls-8" d="M330.74,518.33h0C330.84,518.42,330.82,518.4,330.74,518.33Z" transform="translate(-26.67 -479.65)"/><path class="cls-8" d="M352.89,515.74a3.92,3.92,0,0,0-.59-0.13A4.07,4.07,0,0,0,352.89,515.74Z" transform="translate(-26.67 -479.65)"/><path class="cls-8" d="M352.79,515.53l0.4,0C353.26,515.5,353.2,515.46,352.79,515.53Z" transform="translate(-26.67 -479.65)"/><path class="cls-8" d="M351.55,515.57a4.71,4.71,0,0,1,.75,0c-0.09,0-.13-0.05-0.1-0.07Z" transform="translate(-26.67 -479.65)"/><path class="cls-8" d="M186,519.58l-0.1,0C185.44,519.72,185.64,519.69,186,519.58Z" transform="translate(-26.67 -479.65)"/><path class="cls-8" d="M295.51,520.28l0.05,0-0.07,0Z" transform="translate(-26.67 -479.65)"/><path class="cls-8" d="M293.86,520.61a1.65,1.65,0,0,1,1.64-.36L294.95,519Z" transform="translate(-26.67 -479.65)"/><path class="cls-8" d="M229.67,520.77l1.16,0.39c-1.4.64-2.42,0.42-1.33,1,0.16-1.36,4.52-.14,4.69-1.5l0.77,0.29c-0.22,0-.25.07-0.47,0.05,1.49,0.65,1.11-1,3-.79,0.67,0.1,1.14.3,0.68,0.46l1.49-.34c0.43,0,.33.26-0.1,0.24l2.28-.11,0,0a10.25,10.25,0,0,1,1.42-.68c0.58,0.19-.29.14-0.14,0.31l1.26-.33c0.51,0.35-.53.69-1.4,0.64,1.18,1.36,1-.34,3.59.45l-1.19.17c0.77,0.77,1.7.49,3,1-0.32-.25-2.69-1.21-1.33-1.55a2.55,2.55,0,0,0,1.63-.12c0,0.48.73,0.36,1.63,0.34l-0.06.64a3.3,3.3,0,0,0,1.47-.8,1.62,1.62,0,0,1,1.57,1c1.74,0.1-1.2-.79.86-0.91a10,10,0,0,0,4.19-.4c1,0.22-.18.39,0.19,0.57l0.9-.51c0.22,0,.15.17,0.11,0.25,0.76-.2.06-0.64,1.25-0.81,0.32-.7,2.44,1,3.91.23,0.36,0.18-.18.39-0.06,0.64a14.9,14.9,0,0,0,3.39-1.09l1.41,0.42c-1-.48.29-1,1.45-1.52a9.83,9.83,0,0,0-.89-0.53l1.85-.34c0.22,0.1,0,.32-0.27.59l0.34-.15c0.66,0.24.32,0.61-.16,1l-0.67-.39a1.56,1.56,0,0,0-.79,1.19,1.79,1.79,0,0,1,.61-0.17c-0.12.11-.2,0.2-0.14,0.26a0.92,0.92,0,0,0,.56-0.24l0.42,0.71,0.1-.28,2.43,0.45c1.74-.72,3.25-1.77,6-2.07-0.68.52-.15,0.85-0.18,1.47-0.75-.66-2.13.28-3.56,0.15,0.74,0.07.58,0.36,0.39,0.47l2.55-.6c-0.06.51,0.54,0.38,1.21,0.59-0.5-1,1.9-.67,2.93-1,0.06,0.34-.18.68-1.45,0.6,1.39,0.75,1.8-1.18,3.17-.54a0.65,0.65,0,0,0-.6.13c0.72-.3,2.48-0.06,2.07.23h-0.31c2,0.12,6.24,0,6.54-.84a4.49,4.49,0,0,1-.39,1.2l3.66-2.86c-0.32.73,0.91,2.47-.78,2.88a4.15,4.15,0,0,0,2.12,0c-0.33-.1-0.83-1.06-0.37-1.12a10.14,10.14,0,0,0,2.41,1.13c-0.5-.16.06-1.3,0.84-1.27-0.12.17,0.07,1.13-.22,1.25l2-1.12c-0.49.2-.09,1,0.35,1.27-0.2-.22,1.7,0,2.22-0.09L304,520c2.22,0.17,2.19-1.58,4.39-1.52-0.27.23-.66,1.43,0.46,1.57,0.51-.58,2.27-2.77,4.21-3.21l0.37,0.33,1.49-.37a29.48,29.48,0,0,1-5,3.4c0.83,0.26.23,0.39,1.47,0.36,0.44,0.31-.68.47-1,0.49l2.89,0.2c-0.13-.67,2.21-0.67,2.1-1.23l-3.14.7c-0.13-.67,1.82-1.91,3.86-1.79,0.52,0.27-.39,1.2-0.35,1.42a4.1,4.1,0,0,1,2.13-.28l-0.87.36c1.14,0.25,1.86-.89,3.23-0.25,0.47,0,1.41.87,1.49,0.47-0.77-.77-0.92-3.14-0.41-3.72a19.25,19.25,0,0,1,3,1.11c0.78,0.6-1.17,1.43-.51,2a1.22,1.22,0,0,1,.64-0.48c0.5,0.16-.21.57,0.87,0.49,0.18-.68,2.19.06,0.51-0.58,1.06-.19,1.12.14,2.36,0.11-0.39-.44,1.11-1.5,2.17-1.69a0.63,0.63,0,0,0,.29.5c2.16,0.06,3.33.37,5.34,0.38,0.19,0.16,1.16.36,0.74,0.66A2.53,2.53,0,0,1,338,519c1.2,0.59-1.39.09-.47,0.8,0.08-.4,1.61-0.55,2.5-0.79-0.27-.61-2-0.12-2.94.13,0-.84,1.54-1.73,3.65-2.12,1.68-.21.73,0.55,1,0.43,3.15,0.15,2.68-1.47,5.3-.86,1,0.54,0,1.07.28,1.46-1.37.2-2.1-.34-3-0.32l1.14,0.25a3.43,3.43,0,0,1-1.84.16c0.87,0.48,5.32.09,7.75,0.54,0.43-.18,1.18-0.37.82-0.58l-0.77.08c-0.71-.43,1.45-0.6.47-0.8a7.53,7.53,0,0,1,3.64-.54l0.27,0.61a1.55,1.55,0,0,0-1.36-.18c0.61-.27,2.23.83,2.89,0l-1-.42c1-.31,2.31-1,3.6-0.77-0.59-.61-0.3.07-1.21-0.64,0.79,0.88-3.29,0-2,.89-0.94-.82-1.62-0.35-2.85-1,0,0.2.43,0.39-.65,0.29a1.1,1.1,0,0,1-.24.18l-0.07,0,0.06,0s-0.05,0,0,0a1.24,1.24,0,0,1,.55.31c-0.54.46-2.25,0.45-2.83,0.69-0.64-.1.27-0.23-0.08-0.45l-0.87.36c-0.09-.45-1.7-0.75-0.19-1l-1.36,0a5.22,5.22,0,0,0-2.58-.16c-0.64-.1-1.62.5-1.06,0.15l-2.13.28,0-.11c-2.1-.06-4.33.74-6.73-0.07a8.64,8.64,0,0,1-2.62.12l-0.23-.39c-0.91.14-2.73-.39-3.12,0-1-1-4.41-.23-6-0.41l-0.06.51a20,20,0,0,0-3.52.32l0.08,0.45c-1.18.37-3-.32-4.89-0.27a1.07,1.07,0,0,1,.93,0c-2.22-1-4.69.74-6.71,0a1.83,1.83,0,0,1-1.22,0l0.12,0h-0.21c-0.22-.08-0.45-0.17-0.7-0.24a2.73,2.73,0,0,0,.59.24,10,10,0,0,0-1.55.18l-0.25-.48h-0.13c-0.57-.18-0.45.23-0.15,0.59a3.44,3.44,0,0,0-.76.29c-0.46-.78-1.51.26-2.14-0.57-0.39.4-2.9,0.3-3.21,1.15,0-.11-0.19-0.16.12-0.17a3.48,3.48,0,0,0-1.86,0l-0.27-.61-1.4.82c-0.85-.37-1.21-0.59-0.36-1.06-2,.72-1.66.27-3.4,1l0.08-.4c-0.62,0-1.61.55-2,.22-1.39-.75-6.88-0.1-10.44-0.8,0.69,1.17-1.66-.52-1.8.38-0.21-.28-0.71-0.43-0.13-0.67-1.82.27-2.74-.44-4,0.32-0.21-.28.39-0.4,0.2-0.57a0.92,0.92,0,0,1-.77.08c-0.19-.16.27-0.23,0.55-0.35-1.86,0-2,.9-2.18,1.69a1.77,1.77,0,0,0-2.09.2c-0.33-.26-0.88-0.53.28-0.63-0.65,0-4-.38-4,0.26a1.69,1.69,0,0,0-1.08,0c-1.46,0-1.59-.1-3,0l0.4,0.1c-0.57.77-1.19,0.17-2.35,0.26l0-.08c-2.65-.56-1.14.27-3.76-0.37l0.14,0.48c-0.24,1-2.31-.61-3.83-0.21l0.55,0.27c-0.83.35-2.31-1.4-3.15-1.53-0.18-.09.29-0.14,0.54-0.21-2.18-.61-0.28.63-1.9,0.77-0.3-.34.39-0.86-0.71-0.92-0.54-.27-3.17,1.1-4.66.45,0.33,0.26.65,0.52-.1,0.72-1.16.09-3.12-1-4.17-.16a0.3,0.3,0,0,1-.21-0.2c-0.88.21-2.87,0.35-3.4,0.8-0.82-1.66-5.49.81-5.47-.72l-2.72.08,0.07-.16a4.28,4.28,0,0,0-3,.63c-0.4-.1-0.11-0.25-0.08-0.33a7.55,7.55,0,0,0-4.92.52l-0.22-.5c-0.58.29-3.67-.78-6.16-0.2a0.4,0.4,0,0,1,.27-0.22c-2.8.58-6.7-1.37-7.73,0.43l-1.85.44c2.39,0.14-.36.78,0.63,1.08-0.94.11-2.43-.54-1.27-0.64l0.18,0.09c0.42-.94-3-0.33-2.91-1-4.7,0-9.29-.47-13.69-0.51l0.51,0.73-1.54,0c-0.4-.17-0.54-0.57.55-0.54-0.58-.41-1.84.35-1.87,0.51-2.15-.3.84-0.85,0.18-0.87l-0.89.05,0.2,0.09a3.32,3.32,0,0,1-2.11.58c-0.83-.15-0.43-0.45-0.76-0.48,0-.05-0.11-0.08-0.5,0l-1.94-.06,0.77,0.58c-0.86.28-1.82,0-.93,0.62-1.31-1-7.22-.36-8-0.68a10.19,10.19,0,0,1-3.86.36c0.37,0.12.58,0.77-.68,0.69,0.46-1.34-2.32-.58-3.35-1.55,0.92,0.64-3.6.16-2.17,1.07-1.06-.11-0.06-0.5-0.87-0.82-2.52.52-5.55-.34-8.66-0.16,0,0.18.47,0.44-.19,0.71l-1.64-.88c-0.61.09-.57,1-1.69,0.4,0.16,0.15.4,0.37,0,.43-6.09-.86-12.45.7-18.64-0.91,0.84,0.34.28,0.37-.36,0.39,0.42,0.08,0,.43.07,0.67l-2.59-.66c-0.47.66-2.78,0-3,.68l0.82-.11c-1.09.75,1.53,1.66,1.37,2.62,1.22-.85,3.22,1.26,5.23,0,0.44,0.2-.38.31-0.14,0.53a2.62,2.62,0,0,1,2.26-.31l-0.13.1c3.2-.1,4.57.3,8.15,0.57l-0.27-.47a3.7,3.7,0,0,1,1.29.33c0.89-.72-2.17,0-1.36-0.83,1,1,5.44,0,6.13,1.11,1.19,0-.35-0.55.84-0.54l0.31,0.3,0.3-.38a1.2,1.2,0,0,1,1.2.68,3.76,3.76,0,0,0-.74.09c1,0.35,2.84-.12,3.19,0l-1.14-.18c3.24-.28,7.19.11,10.32-0.49l-0.24-.22c2.39-.41,1.91.25,4.54,0.05l-0.1.05a4.73,4.73,0,0,1,1.94-.31c-0.66.26,1.25,0.51,0.38,0.8,2.59-.44,1.28-0.35,3-1.18l0.39,0.37a3,3,0,0,1,1.94-.61c-1.07.32,0.84,0.57-.37,1,2.75,0.81,4.08-.82,5.34.37,1.26-1-2.38-.57-1.67-0.79-0.59-.34,1-0.77,1.9-0.66s1.49,1.31,3.7,1.29c-0.22,0-.23.07-0.45,0.07,0.83,0.26,1.62-.35,2.63.07,0.57-.62,1.32,0,1.48-0.76l-2,.18c1.15-.21,2.23-1.13,4.12-0.68a3.5,3.5,0,0,1-1.1.49c0.55,0.23,1.07-.15,1.64.08-0.16.79-2.46,0.17-3.69,0.78,0.59,0.33,2.33-.57,1.71.28,0.89-1.09,2.18.14,3.67-.7l-0.1.47a3.61,3.61,0,0,1,1.16-.29l-0.79.62c1.21-.52,2.33.46,3.5,0.17-2.43,0-.55-0.57-1.57-0.92,3-.64,1.73,1.24,5.08,1-0.45.07-1.71-.29-1-0.5a6,6,0,0,1,1.88.53c2.23-.1-0.34-0.49.61-0.78,0.76,0.58,1.09-.24,2.07-0.42v0.48c2.54,0.31.67-1,3-.63l-1,.67,1.19-.17-0.25.55a5.37,5.37,0,0,1,3-.15c-0.29-.34.17-0.88,1.29-0.89,0.77,0.29-.43.46,1.16,0.39a1,1,0,0,1-1.45.24c-0.07.16-.35,0.3-0.43,0.46a7.19,7.19,0,0,0,2.65.07,2,2,0,0,1-.62-0.11l2.31-.67c0.36,0.18.08,0.33-.21,0.47a13.39,13.39,0,0,1,1.48-.32,1.15,1.15,0,0,1-1.11,1l2.2-.44c0.15,0.17,1.13.47,0.84,0.61,1.22,0.23,3-.76,4.61-0.46a1.2,1.2,0,0,1,.6-0.2c1.52,0.09,2.86.57,4.67,0l1,0.7c1.41-.16-1.38-0.89,1-1.15,1.66-.22.62,0.6,1.2,0.8a5,5,0,0,1,3.79-.5A8.1,8.1,0,0,1,229.67,520.77Zm17.39-.31c-0.34.1-1,.41-1.26,0.13C246.18,520,246.48,520.3,247.06,520.46Zm26.44-1.16a1.24,1.24,0,0,1-1.08-.1A2.53,2.53,0,0,1,273.49,519.29Zm73.64-3.36,0,0C346.35,515.77,346.62,515.84,347.14,515.94Zm1.56,0.21c0.16-.07.15-0.13,0.08-0.2a1.29,1.29,0,0,1-.86.1A0.73,0.73,0,0,0,348.7,516.14Zm-167.62.19,0.3,0.13C180.69,516.6,180.88,516.47,181.07,516.33Z" transform="translate(-26.67 -479.65)"/><path class="cls-8" d="M270.5,520a0.45,0.45,0,0,1-.14-0.26C270.22,519.77,270.22,519.87,270.5,520Z" transform="translate(-26.67 -479.65)"/><path class="cls-8" d="M218.85,521H218.8a0.2,0.2,0,0,0-.05.09Z" transform="translate(-26.67 -479.65)"/><path class="cls-8" d="M324.52,520.23a1.51,1.51,0,0,1-.62-0.25C323.88,520.1,324,520.2,324.52,520.23Z" transform="translate(-26.67 -479.65)"/><path class="cls-8" d="M357,515.32l-1,.13a2,2,0,0,1,.9.16C356.85,515.5,356.66,515.33,357,515.32Z" transform="translate(-26.67 -479.65)"/><path class="cls-8" d="M365.65,518.31c0.15-.06.31,0,0.45-0.07l0-.22C365.44,518,365,518.21,365.65,518.31Z" transform="translate(-26.67 -479.65)"/><path class="cls-8" d="M357.9,516.93c0.08,0.41.71,0.27,1.41,0.19h-0.12C359.38,516.55,358.64,516.74,357.9,516.93Z" transform="translate(-26.67 -479.65)"/><path class="cls-8" d="M359.46,517.11a3.65,3.65,0,0,1,.65,0C360.19,516.87,359.85,517,359.46,517.11Z" transform="translate(-26.67 -479.65)"/><path class="cls-8" d="M350.68,515.88c0.33,0.1.21-.52,0.4-0.35C351.44,515,348.86,516.15,350.68,515.88Z" transform="translate(-26.67 -479.65)"/><polygon class="cls-8" points="331.8 38.62 331.54 38.12 331.15 38.52 331.8 38.62"/><path class="cls-8" d="M352.93,517.9l1.12,0.14c0-.08.13-0.13,0.3-0.17A3.22,3.22,0,0,0,352.93,517.9Z" transform="translate(-26.67 -479.65)"/><path class="cls-8" d="M354.35,517.86a2.56,2.56,0,0,0,.9-0.08A5.78,5.78,0,0,0,354.35,517.86Z" transform="translate(-26.67 -479.65)"/><polygon class="cls-8" points="330.26 38.77 329.93 38.66 329.14 38.63 330.26 38.77"/><path class="cls-8" d="M340.9,517.8l-1.22.14c-0.12.17,0.21,0.28,0.66,0.21C340.64,518,341.09,518,340.9,517.8Z" transform="translate(-26.67 -479.65)"/><path class="cls-8" d="M344.6,519.17a1.11,1.11,0,0,1-.54-0.38l0,0.62Z" transform="translate(-26.67 -479.65)"/><path class="cls-8" d="M341,519.32c-0.12.17-1.77,0.49-.22,0.46C340.93,519.6,342.16,519.46,341,519.32Z" transform="translate(-26.67 -479.65)"/><polygon class="cls-8" points="295.96 38.89 296.27 38.88 296.23 37.86 295.96 38.89"/><path class="cls-8" d="M306.41,521c1.45,0.24.34-.63,1.65-0.32,0.34-.24-1.07-0.25-0.72-0.46C306.47,520.44,306,520.3,306.41,521Z" transform="translate(-26.67 -479.65)"/><path class="cls-8" d="M307.34,520.19a4,4,0,0,0,.45-0.15A1.77,1.77,0,0,0,307.34,520.19Z" transform="translate(-26.67 -479.65)"/><polygon class="cls-8" points="97.58 36.17 96.65 35.96 97.25 36.3 97.58 36.17"/><path class="cls-8" d="M122.46,516.57l-0.22-.65-0.56.59A1.17,1.17,0,0,1,122.46,516.57Z" transform="translate(-26.67 -479.65)"/><path class="cls-8" d="M249.64,521.76l0.07-.16a1.06,1.06,0,0,0-.8-0.21Z" transform="translate(-26.67 -479.65)"/><polygon class="cls-8" points="210.35 41.63 210.57 41.65 210.16 41.06 210.35 41.63"/><path class="cls-8" d="M226.43,522c0.43,0,.94-0.11,1.37-0.08C226.86,522.05,226.31,521.29,226.43,522Z" transform="translate(-26.67 -479.65)"/></svg>