<svg id="Шар_1" data-name="Шар 1" xmlns="http://www.w3.org/2000/svg" viewBox="0 0 176.6 264.41"><defs><style>.cls-1,.cls-2{font-size:42.28px;font-family:League Gothic;}.cls-1,.cls-2,.cls-4,.cls-5,.cls-6{fill:#6f912c;}.cls-1{letter-spacing:2px;}.cls-3{fill:none;stroke:#6f912c;stroke-linecap:round;stroke-linejoin:round;stroke-width:1.17px;}.cls-4{font-size:15.6px;}.cls-4,.cls-5{font-family:Oswald Bold;font-weight:700;}.cls-5{font-size:13.91px;}</style></defs><title>vplogogrn</title><text class="cls-1" transform="translate(82.78 238.13)">PROMS</text><text class="cls-2" transform="translate(82.78 202.9)">VERNON</text><path class="cls-3" d="M1268.32,839.44c4.29,5.11,58.92-65.65,66.9-56.14L1271,840.06c5.11,6.1,58.59-63.54,65.67-55.11,8.24,9.82-67,51-63.05,55.71,3.67,4.37,64.29-53.95,64.29-53.95s-67.21,48.82-62.57,54.35c2.48,3,63.26-53.08,63.26-53.08s-69.76,43.76-61.62,53.45c0,0,60.22-54.44,62.14-52.15l-59.85,52.54,60.38-50.67c4.93,5.88-68.15,39.5-58.54,51l58.77-49.32c6.62,7.89-57.4,48-56.14,49.49,6.12,7.29,55-48.84,56.3-47.24,0,0-61.16,37.17-52.62,47.36l52.31-43.9c4.89,5.83-48.62,43.73-48.62,43.73,7.69,9.17,47.85-40.15,47.85-40.15s-49.53,32.17-43.37,39.52c3.54,4.21,42-35.24,42-35.24l-36.95,34s30.85-33.89,34.79-29.19c3.3,3.93-32.49,25-30.28,27.62,4.08,4.86,24.23-27.59,27.81-23.33,0,0-26.64,16.69-22.93,21.11,2.75,3.28,17-19.79,19.7-16.53" transform="translate(-1192.33 -775.41)"/><path class="cls-3" d="M1273.52,791.21c0.83,1,7.43-6.23,7.43-6.23s-13.27,13.62-13.27,13.62l21.61-18.13c2.39,2.85-28,19-24.46,23.2,3.26,3.88,30-25.14,30-25.14,3.55,4.23-32.08,30.24-32.08,30.24s33.78-36.18,37.64-31.58c6.58,7.85-44.86,27.17-38.57,34.67,6.75,8,38.3-39.79,42.07-35.3l-43.07,39.35,47.49-39.85L1260,819.89s50.56-45.84,52.25-43.84c0,0-60.26,36.69-52.46,46l54.8-46-55.11,49.05c0.44,0.53,58.09-48.74,58.09-48.74,8.9,10.6-64,43.93-58.16,50.85,9.53,11.35,59.71-50.93,60.12-50.45,5.58,6.65-63.81,49.47-60.22,53.74,0,0,57.7-59.64,63.23-53.05,1.31,1.56-71.48,46.35-63.24,56.18,10.76,12.82,66.07-55.44,66.07-55.44s-74.6,48.6-66.07,58.76c9.06,10.8,68.86-57.78,68.86-57.78,7.92,9.43-79.95,47-68.87,60.24,5.16,6.15,70.78-59.39,70.78-59.39,6.28,7.48-70.78,61.86-70.78,61.86,5.33,6.35,72.61-60.93,72.61-60.93,6.23,7.43-75.93,58.82-72.61,62.78,0,0,70.24-66.28,73.85-62,0,0-86.14,50-73.85,64.63,0.73,0.87,75.52-63.37,75.52-63.37,12,14.28-86,54.19-75.53,66.65,1.05,1.25,8.29-7.66,8.64-7.25,1.15,1.37-8.86,9.94-8.64,10.2l8.64-7.25c0.94,1.12-9,8.77-8.64,9.2,0.13,0.15,8.1-7.89,8.64-7.25,0,0-9.24,10-8.64,10.67,0,0,8.35-7.59,8.64-7.25,0,0-9.59,8.86-8.64,10,0,0,7.81-8.23,8.64-7.25l-8.64,9.69c0.1,0.12,7.89-8.14,8.64-7.25,0,0-9.28,9.63-8.64,10.4,1.14,1.36,7.83-8.2,8.64-7.25l-8.64,9.3s7.35-8.78,8.64-7.25l-8.64,9.51c0.5,0.6,8-8,8.64-7.25,0,0-9.85,9.09-8.63,10.54,0.31,0.37,8.63-7.25,8.63-7.25l-8.63,9.4c0.51,0.61,7.26-8.89,8.63-7.24,0.43,0.52-8.63,9.64-8.63,9.64,0.81,1,8.35-7.58,8.63-7.24,1.57,1.87-9.48,8-8.63,9l8.63-7.24c1.58,1.88-8.63,9.57-8.63,9.57,0.73,0.87,8.09-7.89,8.63-7.24,0,0-8.66,9.74-8.63,9.78,1.31,1.56,8.34-7.59,8.63-7.24,0.74,0.89-8.63,10.48-8.63,10.48s7.86-8.17,8.63-7.24c1.24,1.48-8.63,9.23-8.63,9.23,0.8,1,8.63-7.24,8.63-7.24,1.3,1.55-8.63,9.38-8.63,9.38,0.17,0.2,8.63-7.24,8.63-7.24,1.25,1.49-9.59,8.28-8.63,9.43s7.69-8.37,8.63-7.24l-8.63,10.24,8.63-7.24c1,1.22-9.26,9.58-8.63,10.33,0,0,7.31-8.81,8.63-7.24s-9.84,7.93-8.63,9.37,8-7.93,8.63-7.24c1.44,1.72-8.79,10.21-8.63,10.41l8.63-7.24c0.86,1-8.86,10.28-8.63,10.56l8.63-7.24s-9.23,9.43-8.63,10.15c0.34,0.4,7.42-8.68,8.63-7.24,1.5,1.79-8.63,9.07-8.63,9.07,0.83,1,8.63-7.24,8.63-7.24,1.65,2-10,8.89-8.63,10.51s7.69-8.35,8.63-7.24l-8.63,10.61c1.43,1.7,8.18-7.77,8.63-7.24,0,0-8.81,9.25-8.63,9.47l8.63-7.24-8.63,9.63c1.36,1.62,8.63-7.24,8.63-7.24,1.35,1.61-8.82,10.28-8.62,10.51,0,0,8.48-7.41,8.62-7.24,0.41,0.49-10.07,8.66-8.62,10.39,0,0,8.3-7.63,8.62-7.24s-8.62,10.65-8.62,10.65c0.75,0.9,8.22-7.72,8.62-7.24,0.13,0.15-10.24,7.48-8.62,9.4,0,0,7.31-8.8,8.62-7.24,0,0-9.68,7.94-8.62,9.2,0,0,7.45-8.63,8.62-7.24,0,0-9.67,8.22-8.62,9.47l8.62-7.24-8.62,10.54c0.57,0.67,8.62-7.23,8.62-7.23l-8.62,9.06c0.4,0.48,8.33-7.58,8.62-7.23" transform="translate(-1192.33 -775.41)"/><path class="cls-3" d="M1217.38,812.42c0.23,0.27,1.44-1.21,1.44-1.21,0.79,0.94-5.46,6.68-5.46,6.68s3.7-3.63,4-3.32c0.53,0.63-7.8,9.09-7.8,9.09,1,1.14,5.46-5.62,6-5,0.27,0.32-9.6,10.86-9.53,11,1,1.16,7.61-6.38,7.61-6.38,1.68,2-10.4,11.59-10.4,11.59,1.12,1.34,7.31-8.71,8.58-7.2l-10.42,11,9.2-7.72-11.2,12.49c1.41,1.68,8-9.86,9.55-8l-11.45,13c1.17,1.4,9.95-8.35,9.95-8.35,1.33,1.59-10.93,11.59-10.93,11.59,0.38,0.45,8.7-9.72,9.89-8.3l-10.86,12.1c1.53,1.82,9.27-8.85,9.8-8.22l-10.62,12.21c1.21,1.44,9.54-8.06,9.57-8,1.33,1.59-10.73,11.08-10.18,11.73,0.19,0.23,8.25-9.12,9.33-7.83,0.25,0.3-9.69,10.72-9.69,10.72,1.06,1.27,8.7-8.18,9.13-7.66s-11.23,8.84-9.45,11c0.05,0.06,8.79-7.37,8.79-7.37,1.35,1.61-9,10-9,10l8.67-7.28c0.64,0.76-9.8,9-8.79,10.23,0.28,0.34,8.46-7.1,8.46-7.1,0.29,0.34-8.49,9-8.49,9,1.33,1.59,7.84-7.52,8.3-7,0,0-9.45,8.27-8.31,9.63,0.82,1,8.23-6.91,8.23-6.91s-8.79,9.39-8.12,10.2c0.48,0.57,8-6.74,8-6.74l-7.9,8.59c0.89,1.06,8-6.69,8-6.69l-7.76,8.56s7.88-6.61,7.88-6.61-8.21,7.56-7.55,8.35c0,0,7.12-7.08,7.66-6.43,1.2,1.43-7.23,8.68-7.23,8.68s7.46-6.26,7.46-6.26l-7.15,7.84c0.27,0.32,7.41-6.21,7.41-6.21s-7.68,7.59-6.8,8.64c0.42,0.5,7.21-6,7.21-6,0.7,0.83-7.57,7.11-6.56,8.32s7-5.9,7-5.9-7.6,6.74-6.38,8.19c0.29,0.34,7-5.86,7-5.86l-6.05,8.37c0.12,0.14,6.75-5.66,6.75-5.66,1,1.25-6.94,6.65-5.89,7.91,0,0.06,6.13-6.3,6.7-5.62l-6,7.41,6.67-5.6s-6.36,6.94-5.58,7.87c0.29,0.35,6.5-5.45,6.5-5.45s-6.37,6.55-5.42,7.69c0,0,5.71-6.42,6.51-5.46,1,1.2-6.61,6-5.59,7.24s6.48-5.44,6.48-5.44l-5.73,6.71,6.4-5.37s-6.15,6.19-5.33,7.17c0.22,0.27,6.42-5.39,6.42-5.39s-5.79,6.49-5.75,6.54,6.17-5.75,6.45-5.41c0,0-6,6.34-5.6,6.76,0.91,1.08,5.73-6.26,6.45-5.41s-5.59,6.63-5.59,6.63c0.27,0.32,6.34-5.43,6.39-5.36,1,1.21-5.65,6.53-5.16,7.11l6.45-5.42c0.22,0.26-5.18,7.23-5.18,7.23l6.54-5.48-5.53,6.75c0.42,0.5,6.52-5.47,6.52-5.47,1,1.21-6.17,6-5.16,7.16l6.58-5.52c1,1.21-6,6.29-5.08,7.39,0,0,6.39-6,6.72-5.64,0.14,0.16-5.72,6.88-5.72,6.88,0.75,0.89,5.73-7,6.82-5.72l-5.9,6.85c0.74,0.88,6.89-5.79,6.89-5.79s-7,5.66-6,6.78c0.38,0.45,6.09-7,7-5.89l-5.66,7.47c0.43,0.51,6.33-7.15,7.24-6.07,1.19,1.41-5.81,7.73-5.81,7.73,0.84,1,7-6.76,7.46-6.26,0.72,0.86-5.91,8.06-5.91,8.06,1.23,1.47,7.76-6.51,7.76-6.51,1.18,1.4-6.75,7.7-6.75,7.7,0.8,1,7-8,8-6.73,1.33,1.58-7,7.9-6.95,8l8.31-7c0.2,0.24-7.38,8.06-7.15,8.33l8.61-7.23-7.48,8.56c0.15,0.17,8.94-7.5,8.94-7.5s-8.86,7.55-7.4,9.3l9.48-8-8.25,9.48c0.12,0.14,9.7-8.68,10-8.36,0,0-9.46,9.07-8.84,9.8,0,0,8.77-10.75,10.44-8.76l-8.86,10.77c0.83,1,9.38-11.57,11.2-9.4,1.09,1.3-11.62,9-10.13,10.77,0,0,10.11-11.81,11.74-9.85l-10.55,11.38c0.25,0.3,11.05-11.9,12.35-10.36,0,0-11.54,11.39-11.44,11.51s10.69-13.26,12.8-10.74c0.26,0.31-11.54,12.53-11.32,12.79,0,0,12.89-12.63,13.78-11.56,1.67,2-13.82,11.82-12.4,13.51L1250.3,943c0.66,0.78-14.26,13.06-14,13.41l15.23-12.78c0.72,0.86-13.93,14.62-13.93,14.62,1.44,1.71,16.15-13.62,16.19-13.58,1.65,2-16.58,13.43-14.74,15.63,2.7,3.22,15.08-17.13,17.28-14.5,0.92,1.09-16,16.48-16,16.48,2.79,3.32,16.46-17.69,18.37-15.42,2.36,2.81-18.49,15.68-17.28,17.12,1.93,2.3,24.08-25.08,26.48-22.22l-25.44,23.83c2.3,2.74,25.44-21.35,25.44-21.35l-24.71,22.48L1268,946c1.95,2.32-27.21,18.09-23.82,22.13,0,0,22.94-21,23.82-20,2.19,2.61-23.11,21.1-23.11,21.1S1267.2,949,1268,949.87c0,0-24.15,18.69-21.82,21.47C1247.08,972.46,1268,953,1268,953l-21.17,19.42L1268,954.7l-20.38,19.12s17-21.15,20.38-17.1c0,0-22.32,15.37-19.27,19,0.26,0.32,16.1-19.94,19.27-16.17l-18.11,18.17s15.65-18.12,18.11-15.19c0.18,0.21-19.74,13.86-16.94,17.2L1268,965.5c2.12,2.52-16,15.88-16,15.88,1.36,1.62,14.09-15.74,16-13.44,0.5,0.59-15.93,14.09-15.25,14.89,2,2.39,15.15-12.92,15.25-12.8,1.42,1.69-14.11,15-14.11,15,1.68,2,14.11-11.84,14.11-11.84l-12.9,14.14s12.59-11.19,12.9-10.82c0,0-13.44,11-11.76,13l11.76-9.87-10.55,12.28c0.2,0.24,10.47-8.94,10.55-8.85s-11.19,8.58-10,10l10-8.38-9.25,9.89c0.87,1,9.25-7.76,9.25-7.76s-10,7.62-8.38,9.57c0,0,7.64-7.9,8.38-7,0,0-8.63,7.34-7.68,8.48,1.11,1.32,7.68-6.44,7.68-6.44,0.19,0.22-8.13,6.63-6.85,8.16,0.65,0.77,5.86-6.92,6.85-5.74,1.14,1.36-5.73,8.14-5.73,8.14s5.08-5.58,5.73-4.81c0.82,1-4.83,6.88-4.8,6.92l4.8-4s-4,6-3.81,6.25S1268,1003,1268,1003s-3.9,3.67-3.25,4.44c0.4,0.47,3.25-2.73,3.25-2.73,0.5,0.59-2.49,4.61-2.35,4.77,0,0,2.13-2.23,2.35-2,0,0-1.52,3.84-1.52,3.84l1.52-1.28s-1,2.82-.53,3.34a1.68,1.68,0,0,0,.54-0.45" transform="translate(-1192.33 -775.41)"/><text class="cls-4" transform="translate(83.59 260.51)">M<tspan x="12.59" y="0">usic </tspan><tspan x="41.3" y="0">F</tspan><tspan x="48.42" y="0">esti</tspan><tspan x="71.22" y="0">v</tspan><tspan x="78.66" y="0">al</tspan></text><text class="cls-5" transform="translate(143.31 166.31)">2016</text><rect class="cls-6" x="84.51" y="242.28" width="87.5" height="2"/></svg>