<?xml version="1.0" encoding="utf-8"?>
<!-- Generator: Adobe Illustrator 21.0.0, SVG Export Plug-In . SVG Version: 6.00 Build 0)  -->
<svg version="1.1" id="Шар_1" xmlns="http://www.w3.org/2000/svg" xmlns:xlink="http://www.w3.org/1999/xlink" x="0px" y="0px"
	 viewBox="0 0 176.6 180.5" style="enable-background:new 0 0 176.6 180.5;" xml:space="preserve">
<style type="text/css">
	.st0{fill:#FFFFFF;}
	.st1{font-family:'ArialMT';}
	.st2{font-size:28.2843px;}
	.st3{letter-spacing:1;}
	.st4{fill:none;stroke:#FFFFFF;stroke-width:1.17;stroke-linecap:round;stroke-linejoin:round;}
	.st5{font-family:'Arial-BoldMT';}
	.st6{font-size:10.436px;}
	.st7{font-size:9.3054px;}
</style>
<title>vplogowht</title>
<g>
	<text transform="matrix(1 0 0 1 55.2689 160.2588)" class="st0 st1 st2 st3">PROMS</text>
	<text transform="matrix(1 0 0 1 55.2689 136.6904)" class="st0 st1 st2">VERNON</text>
	<path class="st4" d="M50.7,43.8c2.9,3.4,39.4-43.9,44.8-37.6l-43,38c3.4,4.1,39.2-42.5,43.9-36.9c5.5,6.6-44.8,34.1-42.2,37.3
		c2.5,2.9,43-36.1,43-36.1s-45,32.7-41.9,36.4c1.7,2,42.3-35.5,42.3-35.5S51.1,38.6,56.5,45.1c0,0,40.3-36.4,41.6-34.9l-40,35.1
		l40.4-33.9c3.3,3.9-45.6,26.4-39.2,34.1l39.3-33C103,17.9,60.2,44.7,61,45.7c4.1,4.9,36.8-32.7,37.7-31.6c0,0-40.9,24.9-35.2,31.7
		l35-29.4C101.8,20.3,66,45.7,66,45.7c5.1,6.1,32-26.9,32-26.9S64.8,40.3,69,45.3c2.4,2.8,28.1-23.6,28.1-23.6L72.3,44.4
		c0,0,20.6-22.7,23.3-19.5c2.2,2.6-21.7,16.7-20.3,18.5c2.7,3.3,16.2-18.5,18.6-15.6c0,0-17.8,11.2-15.3,14.1
		c1.8,2.2,11.4-13.2,13.2-11.1"/>
	<path class="st4" d="M54.2,11.5c0.6,0.7,5-4.2,5-4.2l-8.9,9.1L64.8,4.3C66.4,6.2,46,17.1,48.4,19.9C50.6,22.5,68.5,3,68.5,3
		C70.8,5.9,47,23.3,47,23.3S69.6-0.9,72.2,2.1c4.4,5.3-30,18.2-25.8,23.2C50.9,30.7,72-1.3,74.5,1.7L45.7,28L77.5,1.4L45.2,30.7
		c0,0,33.8-30.7,35-29.3c0,0-40.3,24.5-35.1,30.8L81.7,1.4L44.8,34.2c0.3,0.4,38.9-32.6,38.9-32.6c6,7.1-42.8,29.4-38.9,34
		C51.1,43.2,84.7,1.5,85,1.9c3.7,4.4-42.7,33.1-40.3,36c0,0,38.6-39.9,42.3-35.5c0.9,1-47.8,31-42.3,37.6
		c7.2,8.6,44.2-37.1,44.2-37.1S39,35.3,44.7,42.1c6.1,7.2,46.1-38.7,46.1-38.7c5.3,6.3-53.5,31.4-46.1,40.3C48.1,47.9,92,4,92,4
		c4.2,5-47.4,41.4-47.4,41.4c3.6,4.2,48.6-40.8,48.6-40.8c4.2,5-50.8,39.3-48.6,42c0,0,47-44.3,49.4-41.5c0,0-57.6,33.4-49.4,43.2
		C45.2,49,95.2,6,95.2,6c8,9.6-57.5,36.3-50.5,44.6c0.7,0.8,5.5-5.1,5.8-4.9c0.8,0.9-5.9,6.6-5.8,6.8l5.8-4.9c0.6,0.7-6,5.9-5.8,6.2
		c0.1,0.1,5.4-5.3,5.8-4.9c0,0-6.2,6.7-5.8,7.1c0,0,5.6-5.1,5.8-4.9c0,0-6.4,5.9-5.8,6.7c0,0,5.2-5.5,5.8-4.9l-5.8,6.5
		c0.1,0.1,5.3-5.4,5.8-4.9c0,0-6.2,6.4-5.8,7c0.8,0.9,5.2-5.5,5.8-4.9l-5.8,6.2c0,0,4.9-5.9,5.8-4.9l-5.8,6.4
		c0.3,0.4,5.4-5.4,5.8-4.9c0,0-6.6,6.1-5.8,7.1c0.2,0.2,5.8-4.8,5.8-4.8l-5.8,6.3c0.3,0.4,4.9-5.9,5.8-4.8c0.3,0.3-5.8,6.4-5.8,6.4
		c0.5,0.7,5.6-5.1,5.8-4.8c1.1,1.3-6.3,5.4-5.8,6l5.8-4.8c1.1,1.3-5.8,6.4-5.8,6.4c0.5,0.6,5.4-5.3,5.8-4.8c0,0-5.8,6.5-5.8,6.5
		c0.9,1,5.6-5.1,5.8-4.8c0.5,0.6-5.8,7-5.8,7s5.3-5.5,5.8-4.8c0.8,1-5.8,6.2-5.8,6.2c0.5,0.7,5.8-4.8,5.8-4.8c0.9,1-5.8,6.3-5.8,6.3
		c0.1,0.1,5.8-4.8,5.8-4.8c0.8,1-6.4,5.5-5.8,6.3c0.6,0.8,5.1-5.6,5.8-4.8l-5.8,6.9l5.8-4.8c0.7,0.8-6.2,6.4-5.8,6.9
		c0,0,4.9-5.9,5.8-4.8c0.9,1.1-6.6,5.3-5.8,6.3s5.4-5.3,5.8-4.8c1,1.2-5.9,6.8-5.8,7l5.8-4.8c0.6,0.7-5.9,6.9-5.8,7.1l5.8-4.8
		c0,0-6.2,6.3-5.8,6.8c0.2,0.3,5-5.8,5.8-4.8c1,1.2-5.8,6.1-5.8,6.1c0.6,0.7,5.8-4.8,5.8-4.8c1.1,1.3-6.7,5.9-5.8,7
		c0.9,1.1,5.1-5.6,5.8-4.8l-5.8,7.1c1,1.1,5.5-5.2,5.8-4.8c0,0-5.9,6.2-5.8,6.3l5.8-4.8l-5.8,6.4c0.9,1.1,5.8-4.8,5.8-4.8
		c0.9,1.1-5.9,6.9-5.8,7c0,0,5.7-5,5.8-4.8c0.3,0.3-6.7,5.8-5.8,7c0,0,5.6-5.1,5.8-4.8s-5.8,7.1-5.8,7.1c0.5,0.6,5.5-5.2,5.8-4.8
		c0.1,0.1-6.9,5-5.8,6.3c0,0,4.9-5.9,5.8-4.8c0,0-6.5,5.3-5.8,6.2c0,0,5-5.8,5.8-4.8c0,0-6.5,5.5-5.8,6.3l5.8-4.8l-5.8,7.1
		c0.4,0.4,5.8-4.8,5.8-4.8l-5.8,6.1c0.3,0.3,5.6-5.1,5.8-4.8"/>
	<path class="st4" d="M16.6,25.7c0.2,0.2,1-0.8,1-0.8c0.5,0.6-3.7,4.5-3.7,4.5s2.5-2.4,2.7-2.2c0.4,0.4-5.2,6.1-5.2,6.1
		c0.7,0.8,3.7-3.8,4-3.3c0.2,0.2-6.4,7.3-6.4,7.4C9.7,38,14.1,33,14.1,33c1.1,1.3-7,7.8-7,7.8c0.7,0.9,4.9-5.8,5.7-4.8l-7,7.4
		l6.2-5.2l-7.5,8.4c0.9,1.1,5.4-6.6,6.4-5.4l-7.7,8.7c0.8,0.9,6.7-5.6,6.7-5.6c0.9,1.1-7.3,7.8-7.3,7.8c0.3,0.3,5.8-6.5,6.6-5.6
		L2,54.5c1,1.2,6.2-5.9,6.6-5.5l-7.1,8.2c0.8,1,6.4-5.4,6.4-5.4c0.9,1.1-7.2,7.4-6.8,7.8c0.1,0.2,5.5-6.1,6.2-5.2
		c0.2,0.2-6.5,7.2-6.5,7.2c0.7,0.8,5.8-5.5,6.1-5.1c0.3,0.3-7.5,5.9-6.3,7.4c0,0,5.9-4.9,5.9-4.9c0.9,1.1-6,6.7-6,6.7l5.8-4.9
		c0.4,0.5-6.6,6-5.9,6.8c0.2,0.2,5.7-4.7,5.7-4.7c0.2,0.2-5.7,6-5.7,6c0.9,1.1,5.2-5,5.6-4.7c0,0-6.3,5.5-5.6,6.4
		C0.9,71.3,5.9,66,5.9,66S0,72.3,0.5,72.8c0.3,0.4,5.4-4.5,5.4-4.5l-5.3,5.7c0.6,0.7,5.4-4.5,5.4-4.5l-5.2,5.7L6,70.9
		c0,0-5.5,5.1-5.1,5.6c0,0,4.8-4.7,5.1-4.3c0.8,1-4.8,5.8-4.8,5.8l5-4.2L1.4,79c0.2,0.2,5-4.2,5-4.2S1.2,80,1.8,80.7
		c0.3,0.3,4.8-4,4.8-4c0.5,0.6-5.1,4.8-4.4,5.6c0.7,0.8,4.7-3.9,4.7-3.9s-5.1,4.5-4.3,5.5c0.2,0.2,4.7-3.9,4.7-3.9l-4,5.6
		c0.1,0.1,4.5-3.8,4.5-3.8c0.7,0.8-4.6,4.4-3.9,5.3c0,0,4.1-4.2,4.5-3.8l-4,5l4.5-3.7c0,0-4.3,4.6-3.7,5.3C5.3,89.9,9.4,86,9.4,86
		s-4.3,4.4-3.6,5.1c0,0,3.8-4.3,4.4-3.7c0.7,0.8-4.4,4-3.7,4.8s4.3-3.6,4.3-3.6l-3.8,4.5l4.3-3.6c0,0-4.1,4.1-3.6,4.8
		c0.1,0.2,4.3-3.6,4.3-3.6S8,95.1,8.1,95.1s4.1-3.8,4.3-3.6c0,0-4,4.2-3.7,4.5c0.6,0.7,3.8-4.2,4.3-3.6c0.5,0.6-3.7,4.4-3.7,4.4
		c0.2,0.2,4.2-3.6,4.3-3.6c0.7,0.8-3.8,4.4-3.5,4.8l4.3-3.6c0.1,0.2-3.5,4.8-3.5,4.8l4.4-3.7l-3.7,4.5c0.3,0.3,4.4-3.7,4.4-3.7
		c0.7,0.8-4.1,4-3.5,4.8l4.4-3.7c0.7,0.8-4,4.2-3.4,4.9c0,0,4.3-4,4.5-3.8c0.1,0.1-3.8,4.6-3.8,4.6c0.5,0.6,3.8-4.7,4.6-3.8
		l-3.9,4.6c0.5,0.6,4.6-3.9,4.6-3.9s-4.7,3.8-4,4.5c0.3,0.3,4.1-4.7,4.7-3.9l-3.8,5c0.3,0.3,4.2-4.8,4.8-4.1
		c0.8,0.9-3.9,5.2-3.9,5.2c0.6,0.7,4.7-4.5,5-4.2c0.5,0.6-4,5.4-4,5.4c0.8,1,5.2-4.4,5.2-4.4c0.8,0.9-4.5,5.2-4.5,5.2
		c0.5,0.7,4.7-5.4,5.4-4.5c0.9,1.1-4.7,5.3-4.6,5.4l5.6-4.7c0.1,0.2-4.9,5.4-4.8,5.6l5.8-4.8l-5,5.7c0.1,0.1,6-5,6-5s-5.9,5.1-5,6.2
		l6.3-5.4l-5.5,6.3c0.1,0.1,6.5-5.8,6.7-5.6c0,0-6.3,6.1-5.9,6.6c0,0,5.9-7.2,7-5.9l-5.9,7.2c0.6,0.7,6.3-7.7,7.5-6.3
		c0.7,0.9-7.8,6-6.8,7.2c0,0,6.8-7.9,7.9-6.6l-7.1,7.6c0.2,0.2,7.4-8,8.3-6.9c0,0-7.7,7.6-7.7,7.7c0.1,0.1,7.2-8.9,8.6-7.2
		c0.2,0.2-7.7,8.4-7.6,8.6c0,0,8.6-8.4,9.2-7.7c1.1,1.3-9.2,7.9-8.3,9l9.8-8.3c0.4,0.5-9.5,8.7-9.4,9l10.2-8.5
		c0.5,0.6-9.3,9.8-9.3,9.8c1,1.1,10.8-9.1,10.8-9.1c1.1,1.3-11.1,9-9.9,10.5c1.8,2.2,10.1-11.5,11.6-9.7c0.6,0.7-10.7,11-10.7,11
		c1.9,2.2,11-11.8,12.3-10.3c1.6,1.9-12.4,10.5-11.6,11.5c1.3,1.5,16.1-16.8,17.7-14.9l-17,15.9c1.5,1.8,17-14.3,17-14.3l-16.5,15
		l16.6-13.9c1.3,1.6-18.2,12.1-15.9,14.8c0,0,15.3-14,15.9-13.4c1.5,1.7-15.5,14.1-15.5,14.1s14.9-13.5,15.5-13
		c0,0-16.2,12.5-14.6,14.4c0.6,0.7,14.6-12.3,14.6-12.3l-14.2,13l14.2-11.9l-13.6,12.8c0,0,11.4-14.1,13.6-11.4
		c0,0-14.9,10.3-12.9,12.7c0.2,0.2,10.8-13.3,12.9-10.8l-12.1,12.2c0,0,10.5-12.1,12.1-10.2c0.1,0.1-13.2,9.3-11.3,11.5l11.3-9.5
		c1.4,1.7-10.7,10.6-10.7,10.6c0.9,1.1,9.4-10.5,10.7-9c0.3,0.4-10.7,9.4-10.2,10c1.3,1.6,10.1-8.6,10.2-8.6c0.9,1.1-9.4,10-9.4,10
		c1.1,1.3,9.4-7.9,9.4-7.9l-8.6,9.5c0,0,8.4-7.5,8.6-7.2c0,0-9,7.4-7.9,8.7l7.9-6.6l-7.1,8.2c0.1,0.2,7-6,7.1-5.9s-7.5,5.7-6.7,6.7
		l6.7-5.6l-6.2,6.6c0.6,0.7,6.2-5.2,6.2-5.2s-6.7,5.1-5.6,6.4c0,0,5.1-5.3,5.6-4.7c0,0-5.8,4.9-5.1,5.7c0.7,0.9,5.1-4.3,5.1-4.3
		c0.1,0.1-5.4,4.4-4.6,5.5c0.4,0.5,3.9-4.6,4.6-3.8c0.8,0.9-3.8,5.4-3.8,5.4s3.4-3.7,3.8-3.2c0.5,0.7-3.2,4.6-3.2,4.6l3.2-2.7
		c0,0-2.7,4-2.5,4.2c0.1,0.2,2.5-2.2,2.5-2.2s-2.6,2.5-2.2,3c0.3,0.3,2.2-1.8,2.2-1.8c0.3,0.4-1.7,3.1-1.6,3.2c0,0,1.4-1.5,1.6-1.3
		l-1,2.6l1-0.9c0,0-0.7,1.9-0.4,2.2c0.1-0.1,0.3-0.2,0.4-0.3"/>
	<text transform="matrix(1 0 0 1 55.8109 175.2305)" class="st0 st5 st6">Music Festival</text>
	<text transform="matrix(1 0 0 1 95.762 112.2197)" class="st0 st5 st7">2016</text>
	<rect x="56.4" y="163" class="st0" width="58.5" height="1.3"/>
</g>
</svg>
